<svg xmlns="http://www.w3.org/2000/svg" width="24" height="24" fill="#666" xmlns:v="https://vecta.io/nano"><path d="M19.527 22.667H4.473a1.13 1.13 0 0 1-.434-.084 1.14 1.14 0 0 1-.369-.243 1.13 1.13 0 0 1-.337-.799V4.46a1.17 1.17 0 0 1 .114-.476c.071-.149.173-.281.299-.387s.273-.185.432-.23.325-.057.488-.033H6v1.333H4.667v16.667h14.667V4.667H18V3.333h1.5a1.13 1.13 0 0 1 .442.076 1.14 1.14 0 0 1 .378.242c.108.105.195.231.255.37s.091.288.091.439v17.08a1.13 1.13 0 0 1-.337.799 1.14 1.14 0 0 1-.369.243 1.13 1.13 0 0 1-.434.084zm-8.42-5.494L7.533 13.6a.67.67 0 0 1-.157-.46c.007-.167.078-.326.198-.444a.67.67 0 0 1 .447-.192.66.66 0 0 1 .458.163l2.627 2.627 5.76-5.76a.67.67 0 0 1 .459-.16c.167.006.327.076.446.195a.67.67 0 0 1 .195.446c.007.168-.051.332-.16.459l-6.7 6.7zm6.226-9.84H6.667V4.887A1.56 1.56 0 0 1 8.22 3.333h1.193c.147-.574.48-1.082.948-1.445s1.043-.56 1.635-.56 1.167.197 1.635.56.801.871.948 1.445h1.193a1.56 1.56 0 0 1 1.56 1.553v2.447zM8 6h8V4.887a.22.22 0 0 0-.22-.22h-2.447V4c0-.354-.14-.693-.39-.943s-.589-.391-.943-.391a1.33 1.33 0 0 0-.943.391c-.25.251-.391.589-.391.943v.667H8.22a.22.22 0 0 0-.22.22V6z"/></svg>