<svg xmlns="http://www.w3.org/2000/svg" width="40" height="40" fill="none" xmlns:v="https://vecta.io/nano"><path fill-rule="evenodd" d="M20 0c15.245 0 20 5.485 20 20s-4.755 20-20 20S0 34.515 0 20 4.755 0 20 0z" fill="#bf4fd2"/><path d="M9.528 16.793L20 10.777l10.472 6.016a.72.72 0 0 0 .96-.278.72.72 0 0 0-.238-.971L20 9.109 8.806 15.544a.72.72 0 0 0-.224.183c-.062.075-.107.162-.135.256a.72.72 0 0 0-.023.288c.012.097.043.19.092.274a.72.72 0 0 0 1.012.248zm.361 8.985a.72.72 0 0 0 .722.722h18.778a.72.72 0 1 0 0-1.444h-2.167v-5.323h-1.445v5.323h-5.055v-5.323h-1.445v5.323h-5.055v-5.323h-1.445v5.323H10.61a.72.72 0 0 0-.722.722zm19.514-8.667H10.626v1.444h18.778v-1.444zm1.43 10.833H9.167a.72.72 0 1 0 0 1.444h21.667c.191 0 .375-.076.511-.212a.72.72 0 0 0-.511-1.233zm-7.836-12.581h2.318l-4.846-2.788a.58.58 0 0 0-.578 0l-4.853 2.788h2.318l2.817-1.618 2.824 1.618z" fill="#fff"/></svg>