<svg xmlns="http://www.w3.org/2000/svg" width="40" height="40" fill="none" xmlns:v="https://vecta.io/nano"><g fill-rule="evenodd"><path d="M20 0c15.245 0 20 5.485 20 20s-4.755 20-20 20S0 34.515 0 20 4.755 0 20 0z" fill="#4d6eff"/><g fill="#fff"><path d="M30.865 7.133a.75.75 0 0 1 .323.617v22.5a.75.75 0 0 1-.75.75h-4.5a.75.75 0 0 1-.75-.75V28h-1.5v2.25a.75.75 0 0 1-.75.75h-13.5a.75.75 0 0 1-.75-.75v-9a.75.75 0 0 1 .627-.739l8.373-1.395V12.25a.75.75 0 0 1 .486-.702l12-4.5a.75.75 0 0 1 .69.085h.001zm-11.678 5.636v6.981a.75.75 0 0 1-.627.739l-8.373 1.395V29.5h12v-2.25a.75.75 0 0 1 .75-.75h3a.75.75 0 0 1 .75.75v2.25h3V8.833l-10.5 3.936z"/><path d="M17.688 30.25v-10.5h1.5v10.5h-1.5z"/></g></g><path d="M11.688 23.5h1.5V25h-1.5v-1.5zm3 0h1.5V25h-1.5v-1.5zm-3 3h1.5V28h-1.5v-1.5zm3 0h1.5V28h-1.5v-1.5zm9-15h1.5V13h-1.5v-1.5zm3 0h1.5V13h-1.5v-1.5zm-6 3h1.5V16h-1.5v-1.5zm3 0h1.5V16h-1.5v-1.5zm3 0h1.5V16h-1.5v-1.5zm-3 3h1.5V19h-1.5v-1.5zm3 0h1.5V19h-1.5v-1.5zm-6 0h1.5V19h-1.5v-1.5zm0 3h1.5V22h-1.5v-1.5zm3 0h1.5V22h-1.5v-1.5zm3 0h1.5V22h-1.5v-1.5zm-6 3h1.5V25h-1.5v-1.5zm3 0h1.5V25h-1.5v-1.5zm3 0h1.5V25h-1.5v-1.5z" fill="#fff"/></svg>