<svg xmlns="http://www.w3.org/2000/svg" width="24" height="24" fill="none" xmlns:v="https://vecta.io/nano"><path d="M22.253 8.46c-.398.203-.822.351-1.26.44a6.9 6.9 0 0 1 .34 2.1 7.38 7.38 0 0 1-.669 2.963c-.426.93-1.04 1.763-1.805 2.444-.067.062-.12.137-.157.221a.66.66 0 0 0-.056.266v3.56l-2.92-1.86c-.081-.052-.173-.085-.269-.097a.67.67 0 0 0-.285.024 10.67 10.67 0 0 1-3.173.48c-5.147 0-9.333-3.587-9.333-8S6.853 3 12 3c1.027 0 2.049.148 3.033.44a4.96 4.96 0 0 1 .3-1.293A12 12 0 0 0 12 1.667C6.12 1.667 1.333 5.853 1.333 11S6.12 20.333 12 20.333c1.1-.001 2.195-.154 3.253-.453l3.687 2.347a.66.66 0 0 0 .336.105c.119.004.238-.024.343-.081a.67.67 0 0 0 .254-.244c.061-.102.093-.22.094-.34V17.18A8.67 8.67 0 0 0 22.634 11a8.23 8.23 0 0 0-.38-2.54zm-14.92 1.873c-.177 0-.346.07-.471.195s-.195.295-.195.471.07.346.195.471.295.195.471.195h9.333c.177 0 .346-.07.471-.195s.195-.295.195-.471-.07-.346-.195-.471-.295-.195-.471-.195H7.333zM9.5 13.667c-.177 0-.346.07-.471.195s-.195.295-.195.471.07.346.195.471.295.195.471.195h5c.177 0 .346-.07.471-.195s.195-.295.195-.471-.07-.346-.195-.471-.294-.195-.471-.195h-5zm-2.647-6c0 .177.07.346.195.471s.295.195.471.195h8.96a.67.67 0 0 0 .553-.313A5.02 5.02 0 0 1 16 7H7.52c-.177 0-.346.07-.471.195s-.195.295-.195.471z" fill-opacity=".5" fill="#000"/><path d="M20 7.333c1.841 0 3.333-1.492 3.333-3.333S21.841.667 20 .667 16.667 2.159 16.667 4 18.159 7.333 20 7.333z" fill="#e30713"/></svg>