<svg xmlns="http://www.w3.org/2000/svg" width="24" height="24" fill="#000" xmlns:v="https://vecta.io/nano"><path d="M20.953 10.667H6.667V12h14.287c.177 0 .346-.07.471-.195s.195-.295.195-.471-.07-.346-.195-.471-.295-.195-.471-.195zm0 5.333H6.667v1.333h14.287c.177 0 .346-.07.471-.195s.195-.295.195-.471-.07-.346-.195-.471a.67.67 0 0 0-.472-.196zM10.3 6.667h10.667c.177 0 .346-.07.471-.195s.195-.295.195-.471-.07-.346-.195-.471-.295-.195-.471-.195h-9.333L10.3 6.667zm1.367-4.387c-.068-.068-.148-.123-.237-.16a.73.73 0 0 0-.56 0 .72.72 0 0 0-.237.16L5.26 7.653 3.007 5.227c-.133-.142-.316-.226-.511-.233s-.384.064-.526.196-.226.316-.233.511.064.384.196.526L5.227 9.76l6.44-6.427c.071-.068.127-.15.165-.241a.74.74 0 0 0 .058-.286.74.74 0 0 0-.058-.286c-.038-.091-.094-.172-.165-.241z" fill-opacity=".6"/></svg>