<svg xmlns="http://www.w3.org/2000/svg" width="18" height="18" fill="none" xmlns:v="https://vecta.io/nano"><path d="M11.813 9.563H6.188c-.311 0-.562.252-.562.563s.252.563.563.563h5.625c.31 0 .563-.252.563-.562s-.252-.562-.562-.562zm1.125-3.375H5.063c-.311 0-.562.252-.562.563s.252.563.563.563h7.875c.31 0 .563-.252.563-.562s-.252-.562-.562-.562zM9 0C4.03 0 0 3.526 0 7.875c0 2.486 1.319 4.699 3.375 6.142V18l3.943-2.392c.546.09 1.107.142 1.682.142 4.971 0 9-3.526 9-7.875S13.971 0 9 0zm0 14.625c-.657 0-1.291-.076-1.901-.206L4.45 16.01l.035-2.609c-2.03-1.221-3.361-3.239-3.361-5.527 0-3.728 3.526-6.75 7.875-6.75s7.875 3.022 7.875 6.75-3.526 6.75-7.875 6.75z" fill="#838689"/></svg>