<svg xmlns="http://www.w3.org/2000/svg" width="17" height="16" fill="none" xmlns:v="https://vecta.io/nano"><g clip-path="url(#A)"><path d="M14.85 4.95h-4.63l.926-2.778c.167-.502.083-1.058-.227-1.487S10.109 0 9.58 0H8.25c-.245 0-.477.109-.634.297L3.738 4.95H1.65A1.65 1.65 0 0 0 0 6.6v7.425a1.65 1.65 0 0 0 1.65 1.65h10.978a1.66 1.66 0 0 0 1.545-1.071l2.274-6.065c.035-.093.052-.191.052-.29V6.6a1.65 1.65 0 0 0-1.65-1.65zM1.65 6.6H3.3v7.425H1.65V6.6zm13.2 1.501l-2.222 5.924H4.95V6.074L8.636 1.65h.945L8.293 5.513c-.042.124-.053.256-.034.386s.069.252.146.359.177.193.294.252.246.09.376.09h5.775v1.501z" fill="#979797"/></g><defs><clipPath id="A"><path fill="#fff" d="M0 0h16.5v15.675H0z"/></clipPath></defs></svg>