<svg xmlns="http://www.w3.org/2000/svg" width="40" height="40" fill="none" xmlns:v="https://vecta.io/nano"><path fill-rule="evenodd" d="M20 0c15.245 0 20 5.485 20 20s-4.755 20-20 20S0 34.515 0 20 4.755 0 20 0z" fill="#ff9500"/><path d="M25.186 14.898l-4.268 4.196c-.46-.222-.984-.274-1.479-.147s-.929.425-1.226.842a2.17 2.17 0 0 0-.395 1.433c.041.509.262.988.622 1.35s.837.586 1.346.632a2.16 2.16 0 0 0 1.436-.385 2.17 2.17 0 0 0 .714-2.701l4.275-4.196-1.025-1.025zM20 9.069a11.91 11.91 0 0 0-9.1 19.609l.217.253h17.767l.217-.253A11.91 11.91 0 0 0 20 9.069zm8.19 18.417H11.81a10.42 10.42 0 0 1-2.246-5.662h2.492V20.38H9.564c.121-2.293.997-4.482 2.492-6.225l1.769 1.769 1.018-1.018-1.755-1.777a10.41 10.41 0 0 1 6.189-2.585v2.528h1.444v-2.52a10.45 10.45 0 0 1 9.678 9.829h-2.513v1.444h2.549a10.42 10.42 0 0 1-2.246 5.662z" fill="#fff"/></svg>