<svg xmlns="http://www.w3.org/2000/svg" width="24" height="24" fill="#000" xmlns:v="https://vecta.io/nano"><path d="M18.093 22.667H5.907c-.257-.006-.509-.063-.744-.166s-.447-.253-.624-.439-.316-.404-.408-.644A1.97 1.97 0 0 1 4 20.667V7.487h1.333v13.18a.62.62 0 0 0 .573.667h12.187a.62.62 0 0 0 .234-.065c.073-.037.138-.087.191-.149a.62.62 0 0 0 .148-.453V7.487H20v13.18c.006.257-.038.512-.131.751a1.95 1.95 0 0 1-1.032 1.083c-.235.104-.487.16-.744.166zM20.52 6H3.333c-.177 0-.346-.07-.471-.195s-.195-.295-.195-.471.07-.346.195-.471.295-.195.471-.195H20.52c.177 0 .346.07.471.195s.195.295.195.471-.07.346-.195.471S20.697 6 20.52 6zm-5.187 2.667H14v10h1.333v-10zm-5.333 0H8.667v10H10v-10zm5.333-4.76h-1.267v-1.24H9.933v1.24H8.667v-1.24c0-.342.131-.672.367-.92s.558-.396.9-.413h4.133c.342.017.664.165.9.413s.367.578.367.92v1.24z" fill-opacity=".5"/></svg>