<svg xmlns="http://www.w3.org/2000/svg" width="36" height="36" fill="none" xmlns:v="https://vecta.io/nano"><path d="M9 0a2.26 2.26 0 0 0-2.25 2.25v31.5A2.26 2.26 0 0 0 9 36h22.5a2.26 2.26 0 0 0 2.25-2.25V9l-9-9H9z" fill="#e2e5e7"/><path d="M27 9h6.75l-9-9v6.75A2.26 2.26 0 0 0 27 9z" fill="#b0b7bd"/><path d="M33.75 15.75L27 9h6.75v6.75z" fill="#cad1d8"/><path d="M29.25 29.25a1.13 1.13 0 0 1-1.125 1.125H3.375A1.13 1.13 0 0 1 2.25 29.25V18a1.13 1.13 0 0 1 1.125-1.125h24.75A1.13 1.13 0 0 1 29.25 18v11.25z" fill="#50bee8"/><path d="M6.51 27c-.297 0-.621-.163-.621-.558v-5.109c0-.324.324-.558.621-.558h2.06c4.111 0 4.02 6.225.08 6.225H6.51zm.567-5.128v4.03H8.57c2.429 0 2.536-4.03 0-4.03H7.077zm8.955 5.218c-1.664.072-3.392-1.035-3.392-3.239 0-2.213 1.727-3.301 3.392-3.301 1.574.08 3.22 1.169 3.22 3.301s-1.646 3.239-3.22 3.239zm-.099-5.37c-1.008 0-2.105.711-2.105 2.132 0 1.413 1.098 2.133 2.105 2.133 1.035 0 2.141-.72 2.141-2.133 0-1.422-1.106-2.132-2.141-2.132zm4.377 2.122c0-1.736 1.089-3.229 3.158-3.229.783 0 1.404.234 2.06.801.243.224.27.62.027.872a.61.61 0 0 1-.828-.027c-.368-.387-.746-.494-1.259-.494-1.385 0-2.05.981-2.05 2.078 0 1.116.656 2.141 2.05 2.141.513 0 .99-.208 1.404-.576.278-.216.665-.109.827.108.144.198.215.531-.099.845-.63.586-1.385.703-2.133.703-2.176 0-3.157-1.486-3.157-3.222z" fill="#fff"/><path d="M28.125 30.375H6.75V31.5h21.375a1.13 1.13 0 0 0 1.125-1.125V29.25a1.13 1.13 0 0 1-1.125 1.125z" fill="#cad1d8"/></svg>