<svg xmlns="http://www.w3.org/2000/svg" width="65" height="65" fill="none" xmlns:v="https://vecta.io/nano"><g clip-path="url(#A)"><path d="M63.043 24.098L38.85 17.611 34.616 1.813C34.261.493 32.844-.274 31.453.094L1.956 7.998C.565 8.368-.273 9.746.081 11.066l10.497 39.166c.354 1.319 1.768 2.09 3.156 1.713l11.742-3.143-1.599 5.974c-.354 1.319.484 2.697 1.875 3.065l26.357 7.065c1.391.374 2.802-.393 3.159-1.719l9.652-36.023c.351-1.32-.487-2.698-1.878-3.065zM5.307 11.8l25.447-6.812 9.418 35.159-25.447 6.812L5.307 11.8zm45.646 48.204l-22.146-6.055 1.742-6.506 12.678-3.403c1.391-.367 2.236-1.745 1.879-3.065l-4.901-18.288 19.328 5.301-8.58 32.016z" fill="#000" fill-opacity=".3"/></g><defs><clipPath id="A"><path fill="#fff" d="M0 0h65v65H0z"/></clipPath></defs></svg>