<svg xmlns="http://www.w3.org/2000/svg" width="40" height="40" fill="none" xmlns:v="https://vecta.io/nano"><path fill-rule="evenodd" d="M20 0c15.245 0 20 5.485 20 20s-4.755 20-20 20S0 34.515 0 20 4.755 0 20 0z" fill="#a9d864"/><path d="M22.593 10.667H13.22c-.33.009-.643.147-.872.386s-.354.557-.348.887v16.12c-.005.33.12.649.348.888s.542.377.872.386h13.56c.33-.009.643-.147.872-.386s.354-.557.348-.888V15.947l-5.407-5.28zm-.2 1.66l4 3.933h-4v-3.933zM13.333 28V12h8v5.333h5.333V28H13.333z" fill="#fff"/></svg>