<svg xmlns="http://www.w3.org/2000/svg" width="40" height="40" fill="none" xmlns:v="https://vecta.io/nano"><path fill-rule="evenodd" d="M20 0c15.245 0 20 5.485 20 20s-4.755 20-20 20S0 34.515 0 20 4.755 0 20 0z" fill="#cfd5e3"/><g clip-path="url(#A)"><path d="M27.535 18.066h-5.334l4.605-8.102c.114-.2.113-.444-.002-.643S26.476 9 26.246 9h-7.734c-.277 0-.524.178-.611.441l-3.867 11.645c-.066.196-.033.413.088.581s.316.268.523.268h5.468l-3.482 8.168c-.125.29-.02.628.247.797s.615.124.827-.116l10.312-11.644c.169-.189.21-.461.106-.692s-.334-.381-.588-.381z" fill="#0a2463"/></g><defs><clipPath id="A"><path fill="#fff" transform="translate(14 9)" d="M0 0h14.18v22H0z"/></clipPath></defs></svg>