<svg xmlns="http://www.w3.org/2000/svg" width="40" height="40" fill="none" xmlns:v="https://vecta.io/nano"><path fill-rule="evenodd" d="M20 0c15.245 0 20 5.485 20 20s-4.755 20-20 20S0 34.515 0 20 4.755 0 20 0z" fill="#50e3c2"/><path d="M27 11H13c-1.1 0-2 .9-2 2v14c0 1.1.9 2 2 2h14c1.1 0 2-.9 2-2V13c0-1.1-.9-2-2-2zm-10.5 3a1.25 1.25 0 0 1 1.25 1.25 1.25 1.25 0 0 1-1.25 1.25 1.25 1.25 0 0 1-1.25-1.25A1.25 1.25 0 0 1 16.5 14zm2.5 8h-1v4h-3v-4h-1v-2.5c0-1.1.9-2 2-2h1c1.1 0 2 .9 2 2V22zm4.5 3L21 21h5l-2.5 4zM21 19l2.5-4 2.5 4h-5z" fill="#fff"/></svg>