<svg xmlns="http://www.w3.org/2000/svg" width="16" height="12" fill="none" xmlns:v="https://vecta.io/nano"><g clip-path="url(#A)" fill="#000"><path d="M15.859.804l-4.852 4.821 4.852 4.821A1.39 1.39 0 0 0 16 9.844V1.406a1.39 1.39 0 0 0-.141-.602zM14.594 0H1.406a1.39 1.39 0 0 0-.602.141l6.202 6.171a1.41 1.41 0 0 0 1.989 0L15.196.141A1.39 1.39 0 0 0 14.594 0zM.141.804A1.39 1.39 0 0 0 0 1.406v8.438a1.39 1.39 0 0 0 .141.603l4.852-4.821L.141.804zm10.203 5.484l-.687.687c-.914.914-2.4.914-3.314 0l-.687-.687-4.852 4.821a1.39 1.39 0 0 0 .602.141h13.188a1.39 1.39 0 0 0 .602-.141l-4.852-4.821z" fill-opacity=".6"/></g><defs><clipPath id="A"><path fill="#fff" d="M0 0h16v11.25H0z"/></clipPath></defs></svg>