<svg xmlns="http://www.w3.org/2000/svg" width="24" height="24" fill="none" xmlns:v="https://vecta.io/nano"><path d="M15.83 10.997c-.231 0-.456.068-.648.197s-.341.311-.43.524a1.17 1.17 0 0 0 .253 1.272 1.17 1.17 0 0 0 1.272.253c.213-.088.396-.238.524-.43s.197-.418.197-.648c0-.309-.123-.606-.342-.825s-.516-.342-.825-.342h0zm-6.5 1.167c0-.231-.068-.457-.197-.649s-.311-.341-.524-.43-.448-.111-.674-.066-.434.156-.598.32-.274.371-.319.598-.022.461.067.674.238.395.43.524.418.196.649.196c.309 0 .606-.123.825-.342s.341-.515.341-.825h0zm5.163 3.24c-.318.342-.703.615-1.132.802s-.89.284-1.358.284-.93-.095-1.359-.281-.815-.458-1.134-.799a1 1 0 0 0-1.406-.15 1 1 0 0 0-.15 1.407c.506.573 1.129 1.032 1.826 1.347s1.454.477 2.219.477 1.521-.163 2.219-.477 1.32-.774 1.826-1.347a1 1 0 0 0-.159-1.388 1 1 0 0 0-1.391.125h-.001zM12 .503A11.5 11.5 0 0 0 1.375 7.602a11.5 11.5 0 0 0 2.493 12.533 11.5 11.5 0 0 0 12.533 2.493A11.5 11.5 0 0 0 23.5 12.003c-.003-3.049-1.216-5.972-3.372-8.128S15.049.506 12 .503h0zm0 21a9.5 9.5 0 0 1-8.777-5.864A9.5 9.5 0 0 1 5.282 5.285a9.5 9.5 0 0 1 10.353-2.059 9.5 9.5 0 0 1 5.865 8.777 9.51 9.51 0 0 1-9.5 9.5z" fill="#666"/></svg>