<svg xmlns="http://www.w3.org/2000/svg" width="60" height="60" fill="none" xmlns:v="https://vecta.io/nano"><path fill-rule="evenodd" d="M30 60c16.569 0 30-13.431 30-30S46.569 0 30 0 0 13.432 0 30s13.432 30 30 30z" fill="#34c759"/><mask id="A" maskUnits="userSpaceOnUse" x="0" y="0" width="60" height="60" mask-type="alpha"><path fill-rule="evenodd" d="M30 60c16.569 0 30-13.431 30-30S46.569 0 30 0 0 13.432 0 30s13.432 30 30 30z" fill="#fff"/></mask><g mask="url(#A)"><path d="M40.475 45a2.45 2.45 0 0 1-1.065-.245 2.47 2.47 0 0 1-.854-.684c-.711-.769-6.203-6.174-9.569-9.47a2.46 2.46 0 0 1-.576-2.68c.12-.301.298-.576.524-.807a2.47 2.47 0 0 1 .793-.543 2.45 2.45 0 0 1 2.687.516l4.854 4.769.754.743V25.056c0-4.489-3.615-8.141-8.059-8.141s-8.059 3.652-8.059 8.141v17.487a2.46 2.46 0 0 1-.718 1.738 2.45 2.45 0 0 1-3.469 0A2.46 2.46 0 0 1 17 42.542V25.056C17 17.857 22.816 12 29.964 12s12.964 5.857 12.964 13.056v17.487a2.46 2.46 0 0 1-.719 1.738 2.45 2.45 0 0 1-1.735.72zm-2.23-1.437l.001.002-.001-.002zm-8.28-16.145c1.548 0 2.803-1.257 2.803-2.808s-1.255-2.809-2.803-2.809-2.803 1.258-2.803 2.809 1.255 2.808 2.803 2.808z" fill="#fff"/></g></svg>