<svg xmlns="http://www.w3.org/2000/svg" width="28" height="27" fill="none" xmlns:v="https://vecta.io/nano"><g clip-path="url(#A)"><path d="M14 .6C6.71.6.8 6.509.8 13.8S6.71 27 14 27s13.2-5.91 13.2-13.2S21.291.6 14 .6zm0 24.75c-6.379 0-11.55-5.171-11.55-11.55S7.621 2.25 14 2.25 25.55 7.421 25.55 13.8 20.379 25.35 14 25.35zm4.95-12.375h-4.125V8.85c0-.455-.37-.825-.825-.825s-.825.37-.825.825v4.125H9.05c-.455 0-.825.37-.825.825s.37.825.825.825h4.125v4.125c0 .455.37.825.825.825s.825-.37.825-.825v-4.125h4.125c.455 0 .825-.37.825-.825s-.37-.825-.825-.825z" fill="#1f70f3"/></g><defs><clipPath id="A"><path fill="#fff" transform="translate(.8 .6)" d="M0 0h26.4v26.4H0z"/></clipPath></defs></svg>