<svg xmlns="http://www.w3.org/2000/svg" width="24" height="24" fill="none" xmlns:v="https://vecta.io/nano"><path d="M18.265 4.608a5.67 5.67 0 0 0-8.009 0L4.139 10.72c-.04.04-.061.094-.061.15a.21.21 0 0 0 .061.15l.865.865c.04.039.093.061.149.061s.109-.022.149-.061l6.117-6.113c.759-.759 1.77-1.177 2.843-1.177s2.084.417 2.841 1.177 1.177 1.77 1.177 2.841a3.99 3.99 0 0 1-1.177 2.841l-6.234 6.232-1.01 1.01c-.945.944-2.48.944-3.424 0a2.4 2.4 0 0 1-.708-1.711 2.4 2.4 0 0 1 .708-1.711l6.185-6.183c.157-.155.363-.241.584-.241h.002a.81.81 0 0 1 .579.241c.157.157.241.363.241.584s-.087.424-.241.579l-5.055 5.051a.21.21 0 0 0-.061.15.21.21 0 0 0 .061.15l.865.865a.21.21 0 0 0 .298 0l5.053-5.053a2.45 2.45 0 0 0 .722-1.744c0-.659-.258-1.28-.722-1.744-.963-.963-2.529-.961-3.492 0l-.6.602-5.583 5.58c-.379.377-.679.825-.884 1.318s-.309 1.023-.307 1.557c0 1.085.424 2.105 1.191 2.871a4.06 4.06 0 0 0 2.876 1.188 4.05 4.05 0 0 0 2.873-1.188l7.247-7.242c1.066-1.069 1.657-2.491 1.657-4.003s-.588-2.937-1.657-4.005z" fill="#000" fill-opacity=".6"/></svg>