<svg xmlns="http://www.w3.org/2000/svg" width="40" height="40" fill="none" xmlns:v="https://vecta.io/nano"><path fill-rule="evenodd" d="M20 0c15.245 0 20 5.485 20 20s-4.755 20-20 20S0 34.515 0 20 4.755 0 20 0z" fill="#f5e1c8"/><g clip-path="url(#A)"><path d="M27.957 21.71c-.229-2.983-1.618-4.852-2.843-6.501C23.98 13.681 23 12.363 23 10.417c0-.156-.087-.299-.226-.371s-.306-.06-.433.032c-1.84 1.317-3.375 3.536-3.911 5.653-.372 1.474-.422 3.131-.428 4.226-1.699-.363-2.084-2.905-2.088-2.932a.42.42 0 0 0-.217-.309c-.118-.062-.258-.066-.378-.007-.089.043-2.187 1.109-2.309 5.365L13 22.5a7.51 7.51 0 0 0 7.5 7.5h.022A7.51 7.51 0 0 0 28 22.5c0-.208-.043-.79-.043-.79zM20.5 29.166c-1.379 0-2.5-1.195-2.5-2.663l.003-.162c.017-.619.134-1.042.263-1.323.242.519.674.996 1.376.996.23 0 .417-.186.417-.417 0-.593.012-1.278.16-1.895.131-.548.445-1.13.843-1.597.177.606.522 1.097.859 1.576.482.685.981 1.393 1.068 2.601a2.93 2.93 0 0 1 .011.221c0 1.468-1.122 2.663-2.5 2.663z" fill="#ff9500"/></g><defs><clipPath id="A"><path fill="#fff" transform="translate(13 10)" d="M0 0h15v20H0z"/></clipPath></defs></svg>