<svg xmlns="http://www.w3.org/2000/svg" width="40" height="40" fill="none" xmlns:v="https://vecta.io/nano"><path fill-rule="evenodd" d="M20 0c15.245 0 20 5.485 20 20s-4.755 20-20 20S0 34.515 0 20 4.755 0 20 0z" fill="#e6e6e6"/><path d="M20.94 12.667a.66.66 0 0 1-.05.256c-.034.081-.082.155-.144.217L13.887 20l6.86 6.86a.67.67 0 0 1 .16.459c-.006.167-.076.327-.195.446a.67.67 0 0 1-.446.195c-.168.007-.332-.051-.459-.16L12 20l7.807-7.807a.67.67 0 0 1 .341-.179.66.66 0 0 1 .383.04.67.67 0 0 1 .41.613zm7.333 0a.66.66 0 0 1-.193.473L21.22 20l6.86 6.86a.67.67 0 0 1 .16.459c-.006.167-.076.327-.195.446a.67.67 0 0 1-.446.195c-.168.007-.332-.051-.459-.16L19.333 20l7.807-7.807a.67.67 0 0 1 .341-.179.66.66 0 0 1 .383.04.67.67 0 0 1 .41.613z" fill-opacity=".5" fill="#000"/></svg>