<svg xmlns="http://www.w3.org/2000/svg" width="20" height="20" fill="none" xmlns:v="https://vecta.io/nano"><path d="M10.781 5.391v4.286l2.844 2.844a.78.78 0 1 1-1.105 1.105l-3.073-3.073A.78.78 0 0 1 9.219 10V5.391a.78.78 0 1 1 1.562 0zM13.073 0H6.927C5.291 0 3.676.575 2.385 1.698V.781a.78.78 0 0 0-1.563 0v3.073c0 .431.353.781.781.781h3.073a.78.78 0 1 0 0-1.563H3.199c.989-.953 2.324-1.51 3.729-1.51h6.146a5.37 5.37 0 0 1 5.365 5.365v6.146a5.37 5.37 0 0 1-5.365 5.365H6.927a5.37 5.37 0 0 1-5.365-5.365V10A.78.78 0 1 0 0 10v3.073C0 16.893 3.107 20 6.927 20h6.146C16.893 20 20 16.893 20 13.073V6.927C20 3.107 16.893 0 13.073 0h0z" fill="#000" fill-opacity=".6"/></svg>