<svg width="40" height="40" viewBox="0 0 40 40" fill="none" xmlns="http://www.w3.org/2000/svg">
<path fill-rule="evenodd" clip-rule="evenodd" d="M20 0C35.245 0 40 5.48462 40 20C40 34.5154 35.245 40 20 40C4.75502 40 0 34.5154 0 20C0 5.48462 4.75502 0 20 0Z" fill="#1F70F3"/>
<path d="M30.433 16.7192L21.1617 8.18956C20.8603 7.91227 20.4634 7.7622 20.0539 7.77073C19.6444 7.77926 19.2541 7.94572 18.9645 8.23532L10.4376 16.7623L10 17.1998V29.7704H18.2168V21.9271H22.6987V29.7704H30.9155V17.1631L30.433 16.7192ZM20.086 9.26438C20.0992 9.26438 20.0911 9.26722 20.0854 9.27278C20.0796 9.26722 20.0729 9.26438 20.086 9.26438ZM29.4215 28.2764H24.1927V21.9271C24.1927 21.5309 24.0353 21.1509 23.7551 20.8707C23.4749 20.5905 23.0949 20.4331 22.6987 20.4331H18.2168C17.8206 20.4331 17.4406 20.5905 17.1604 20.8707C16.8802 21.1509 16.7228 21.5309 16.7228 21.9271V28.2764H11.494V17.8187L20.086 9.29169C20.0866 9.29113 20.0867 9.29061 20.0872 9.29005L29.4215 17.8187V28.2764Z" fill="white"/>
</svg>
