<svg xmlns="http://www.w3.org/2000/svg" width="40" height="40" fill="none" xmlns:v="https://vecta.io/nano"><path fill-rule="evenodd" d="M20 0c15.245 0 20 5.485 20 20s-4.755 20-20 20S0 34.515 0 20 4.755 0 20 0z" fill="#f4dadd"/><g clip-path="url(#A)"><path d="M23.998 14.383l-2.931-4.097c-.225-.381-.852-.381-1.076 0-.854 1.446-1.91 2.794-2.933 4.098-2.072 2.644-4.03 5.141-4.03 8.095a7.51 7.51 0 0 0 7.5 7.5 7.51 7.51 0 0 0 7.5-7.5c0-2.954-1.958-5.451-4.03-8.095z" fill="#ff453a"/></g><defs><clipPath id="A"><path fill="#fff" transform="translate(13 10)" d="M0 0h15.039v20H0z"/></clipPath></defs></svg>