<svg xmlns="http://www.w3.org/2000/svg" width="40" height="40" fill="none" xmlns:v="https://vecta.io/nano"><path fill-rule="evenodd" d="M20 0c15.245 0 20 5.485 20 20s-4.755 20-20 20S0 34.515 0 20 4.755 0 20 0z" fill="#009688"/><path d="M30.428 12.173l-6.978-1.952-6.998 1.971-6.508-1.846c-.139-.04-.286-.046-.429-.019s-.277.086-.392.173-.209.2-.274.33a.94.94 0 0 0-.098.418v15.966a1.13 1.13 0 0 0 .818 1.082l6.882 1.952 7.002-1.972 6.608 1.849c.139.039.286.045.428.018a.94.94 0 0 0 .664-.504.94.94 0 0 0 .098-.417V13.256a1.13 1.13 0 0 0-.822-1.083zM15.641 28.459L10.25 26.93V11.992l5.391 1.529v14.938zm7.06-1.53l-5.56 1.566V13.557l5.56-1.566v14.938zm7.049 1.551l-5.549-1.552V11.989l5.549 1.552v14.94z" fill="#fff"/></svg>