<svg xmlns="http://www.w3.org/2000/svg" width="24" height="24" fill="none" xmlns:v="https://vecta.io/nano"><path d="M12 1.5C6.202 1.5 1.5 6.202 1.5 12S6.202 22.5 12 22.5 22.5 17.798 22.5 12 17.798 1.5 12 1.5zm.75 15.563c0 .103-.084.188-.187.188h-1.125c-.103 0-.187-.084-.187-.187v-6.375c0-.103.084-.187.188-.187h1.125c.103 0 .188.084.188.188v6.375zM12 9c-.294-.006-.575-.127-.781-.338s-.322-.493-.322-.787.115-.577.322-.787.486-.331.781-.338c.294.006.575.127.781.338s.322.493.322.787-.115.577-.322.787-.486.331-.781.338z" fill="#509af8"/></svg>