<svg xmlns="http://www.w3.org/2000/svg" width="24" height="24" fill="#000" xmlns:v="https://vecta.io/nano"><path d="M11.934 11.533c1.8 0 3.2-1.467 3.2-3.267s-1.467-3.2-3.267-3.2-3.2 1.467-3.2 3.2c0 1.8 1.467 3.267 3.267 3.267zM11.867 6.4h0c1.067 0 1.933.867 1.933 1.933s-.867 1.867-1.933 1.867S10 9.333 10 8.333c0-1.067.867-1.933 1.867-1.933zm9.933 4.733a6.6 6.6 0 0 0-4.667-1.667H16.6c-.133.533-.333 1-.6 1.4.4-.067.733-.067 1.133-.067 1.267-.067 2.533.333 3.533 1.067v4.8H22v-5.333l-.2-.2zM15.6 5.2c.333-.8 1.267-1.2 2.133-.867.8.333 1.2 1.267.867 2.133-.267.6-.867 1-1.467 1-.133 0-.333 0-.467-.067.067.333.067.667.067.933v.4c.133 0 .267.067.4.067 1.667 0 3-1.333 3-2.933 0-1.667-1.333-3-2.933-3-1.067 0-2 .533-2.533 1.467.333.2.667.467.933.867zM8 10.933c-.267-.4-.467-.867-.6-1.4h-.533a6.86 6.86 0 0 0-4.667 1.6l-.2.2v5.333h1.333v-4.8C4.4 11.133 5.6 10.733 6.867 10.8c.4 0 .8.067 1.133.133zm-1.133-2.2c.133 0 .267 0 .4-.067v-.4c0-.333 0-.667.067-.933-.133.067-.333.067-.467.067-.867 0-1.6-.733-1.6-1.6S6 4.2 6.867 4.2c.667 0 1.267.4 1.533 1 .267-.333.667-.667 1-.933-.867-1.4-2.667-1.867-4.067-1s-1.867 2.667-1 4.067c.533.867 1.467 1.4 2.533 1.4zm10.533 6.4l-.133-.2c-1.333-1.467-3.2-2.333-5.2-2.267-2-.067-3.933.8-5.267 2.267l-.133.2V20.2c0 .6.467 1.133 1.133 1.133h8.533a1.17 1.17 0 0 0 1.133-1.133v-5.067H17.4zM16.067 20H8v-4.4c1.067-1.067 2.533-1.6 4.067-1.6 1.467-.067 2.933.533 4 1.6V20z" fill-opacity=".6"/></svg>