<svg xmlns="http://www.w3.org/2000/svg" width="17" height="18" fill="none" xmlns:v="https://vecta.io/nano"><path d="M15.723 7.293h0c.734.67.661 1.53.447 2.083a2.08 2.08 0 0 1 .427 1.155c.02.466-.136.918-.458 1.337.061.172.117.397.13.66m-.547-5.235l.497 5.238m-.497-5.238c-.546-.498-1.465-.715-2.718-.654-.846.039-1.559.191-1.644.21l4.363.444zm.547 5.235l-.05.002m.05-.002l-.05.002m.05-.002c.024.475-.094 1.147-.755 1.755m.705-1.753c.023.468-.093 1.132-.758 1.734m.053.019l-.003-.026-.05.007m.053.019a2.09 2.09 0 0 1-.236 1.284l-.044-.024m.28-1.26l-.019.018-.034-.037m0 0l-.227 1.279m0 0c-.354.638-1.052 1.072-2.074 1.289-.434.094-.955.14-1.553.14-.347 0-.721-.017-1.119-.047a33.64 33.64 0 0 1-4.453-.244l-.785-.094c-.227.16-.504.254-.802.254H2.412a1.39 1.39 0 0 1-1.39-1.39v-5.428a1.39 1.39 0 0 1 1.39-1.39H4.45a1.38 1.38 0 0 1 .617.144l10.169 6.764zm0 0l.044.024c-.364.655-1.078 1.095-2.108 1.314-.439.095-.963.141-1.564.141-.348 0-.723-.017-1.12-.047-2.194.043-4.331-.227-4.458-.244l-.766-.091c-.232.159-.514.252-.815.252H2.412a1.44 1.44 0 0 1-1.44-1.44v-5.428a1.44 1.44 0 0 1 1.44-1.44H4.45a1.43 1.43 0 0 1 .638.149m10.148 6.809L5.088 8.734m0 0a3.62 3.62 0 0 1 .642-.948h.001 0l.001-.001c.016-.016.035-.035.058-.051.255-.196.524-.523.792-.924a13.53 13.53 0 0 0 .78-1.36c.491-.965.907-1.977 1.128-2.568a3.6 3.6 0 0 1-.015-.772c.03-.302.113-.621.309-.848M5.088 8.734l3.734-7.441m-.038-.033l.038.033m-.038-.033l.038.033m-.038-.033A.89.89 0 0 1 9.467.95c.265 0 1.171.06 1.741.846l-.04.029C10.612 1.06 9.727 1 9.467 1a.84.84 0 0 0-.645.294m6.371 10.14h0c.285-.295.416-.586.403-.865h0c-.015-.409-.332-.721-.355-.744-.184-.166-.226-.436-.088-.645.021-.034.123-.208.155-.431s-.005-.491-.26-.725l.145 3.409zm0 0a.5.5 0 0 0-.068.602l.001.003.005.009.015.03a1.26 1.26 0 0 1 .047.112c.035.096.072.229.08.383h0c.022.417-.177.79-.608 1.113h0c-.173.133-.244.361-.171.569h0l.001.004.004.014.012.054c.009.046.02.112.023.19.006.157-.016.362-.127.56h0c-.213.382-.693.665-1.443.824h0c-.598.129-1.414.152-2.421.072h0-.004 0 0 0 0 0 0 0 0 0 0 0 0 0 0 0 0 0 0 0 0 0 0 0 0 0 0 0 0 0 0 0 0 0 0 0 0 0 0 0 0 0 0 0 0 0 0 0 0 0 0 0 0 0 0 0 0 0 0 0 0 0 0 0 0 0 0 0 0 0 0 0 0 0 0 0 0 0 0 0 0 0 0 0 0 0 0 0 0 0 0 0 0 0 0 0 0 0 0 0 0 0 0 0 0 0 0 0 0 0 0 0 0 0 0 0 0 0 0 0 0 0 0 0 0 0 0 0 0 0 0 0 0 0 0 0 0 0 0 0 0 0 0 0 0 0 0 0 0 0 0 0 0 0 0 0 0 0 0 0 0 0 0 0 0 0 0 0 0 0 0 0 0 0 0 0 0 0 0 0 0 0 0 0 0 0 0 0 0 0 0 0 0 0 0 0 0 0 0 0 0 0 0 0 0 0 0 0 0 0 0 0 0 0 0 0 0 0 0 0 0 0 0 0 0 0 0 0 0 0 0 0 0 0 0 0 0 0 0 0 0 0 0 0 0 0 0 0 0 0 0 0 0 0 0 0 0 0 0 0 0 0 0 0 0 0 0 0 0 0 0 0 0 0 0 0 0 0 0 0 0 0 0 0 0 0 0 0 0 0 0 0 0 0 0 0 0 0 0 0 0 0 0 0 0 0 0 0 0 0 0 0 0 0 0 0 0 0 0 0 0 0 0 0 0 0 0 0 0 0 0 0 0 0 0 0 0 0 0 0 0 0 0 0 0 0 0 0 0 0 0 0 0 0 0 0 0 0 0 0 0 0 0 0 0 0 0 0 0 0 0 0 0 0 0 0 0 0 0 0 0 0 0 0 0 0 0 0 0 0 0 0 0 0 0 0 0 0 0 0 0 0 0 0 0 0 0 0 0 0 0 0 0 0 0 0 0 0 0 0 0 0 0 0 0 0 0 0 0 0 0 0 0 0 0 0 0 0 0 0 0 0 0 0 0 0 0 0 0 0 0 0 0 0 0 0 0 0 0 0 0 0 0 0 0 0 0 0 0 0 0 0 0 0 0 0 0 0 0 0 0 0 0 0 0 0 0 0 0 0 0 0 0 0 0 0 0 0 0 0 0 0 0 0 0 0 0 0 0 0 0 0 0-.001c-1.072.023-2.15-.035-2.963-.1l-.987-.092-.281-.032-.076-.009-.02-.003-.006-.001h-.002-.001 0-.007 0m9.043-4.304l-9.043 4.304m0 0l-.281-.033c.014-.081.021-.166.021-.251v-5.431a1.46 1.46 0 0 0-.061-.415 2.74 2.74 0 0 1 .603-1.108c.38-.303.756-.781 1.105-1.327s.678-1.169.959-1.756l.978-2.311M6.149 15.738L9.447 2.864l.049-.009c.015.085.007.171-.022.25m0 0l-.047-.017.047.017zm.871 1.654c-.281.851-.435 1.505-.461 1.997s.073.833.312 1.045l.033-.037c.22.197.514.207.728.13m-.612-3.135l-.149 3.042c.236.211.549.221.775.141m-.626-3.184l.047.016-.047-.016zm.612 3.135l.011.049m-.011-.049l.581-.117-.567.165m-.014-.048l.017.047m-.089-.997l-.05.011.002.051.05-.011-.002-.051zm-8.472 8.944h-.05 0a.44.44 0 0 1-.388-.435v-5.431a.44.44 0 0 1 .438-.438H4.45a.44.44 0 0 1 .438.438v5.428a.44.44 0 0 1-.438.438H2.412zM9.49 1.895l-.001.05.032.001c.004-.01.008-.019.012-.026l-.043-.025zm2.102 5.921c.51-.111 1.221-.201 1.884-.19.331.005.649.035.922.1s.499.162.65.299l-3.456-.209z" fill="#838689" stroke="#838689" stroke-width=".1"/></svg>