<svg xmlns="http://www.w3.org/2000/svg" xmlns:xlink="http://www.w3.org/1999/xlink" width="36" height="36" fill="none" xmlns:v="https://vecta.io/nano"><path d="M36 0l-8.532 25.062a3 3 0 0 1-1.838 1.861l-13.131 4.651c-3.013 1.067-5.383-2.689-3.123-4.949L36 0z" fill="#b071ff"/><path d="M0 0l7.976 25.523a3 3 0 0 0 1.932 1.957l14.175 4.629c3 .979 5.284-2.742 3.052-4.973L0 0z" fill="#00b7c6"/><use xlink:href="#C" fill="#00ffe0"/><use xlink:href="#C" fill="#12edff"/><use xlink:href="#C" fill="url(#A)" fill-opacity=".22"/><path opacity=".22" d="M16.875 22.5L9 36l11.25-9-3.375-4.5z" fill="#fff"/><path d="M36 0v32a4 4 0 0 1-4 4H9L36 0z" fill="#8139dc"/><path d="M36 0v32a4 4 0 0 1-4 4H9L36 0z" fill="url(#B)" fill-opacity=".2"/><path opacity=".2" d="M31.5 22.5v3a6 6 0 0 1-6 6h-3m9-13.5v-2.25" stroke="#000" stroke-opacity=".9" stroke-width="3" stroke-linecap="round" stroke-linejoin="round"/><defs><linearGradient id="A" x1="13.5" y1="0" x2="13.5" y2="36" gradientUnits="userSpaceOnUse"><stop stop-color="#fff"/><stop offset="1" stop-color="#fff" stop-opacity="0"/></linearGradient><linearGradient id="B" x1="22.5" y1="0" x2="22.5" y2="36" gradientUnits="userSpaceOnUse"><stop stop-color="#fff"/><stop offset="1" stop-color="#fff" stop-opacity="0"/></linearGradient><path id="C" d="M0 0v32a4 4 0 0 0 4 4h17c2.472 0 3.883-2.822 2.4-4.8L0 0z"/></defs></svg>