<svg xmlns="http://www.w3.org/2000/svg" width="24" height="24" fill="#000" xmlns:v="https://vecta.io/nano"><path d="M4.667 4h10.667v6.533h1.333V4c0-.354-.14-.693-.39-.943s-.589-.391-.943-.391H4.667a1.33 1.33 0 0 0-.943.391c-.25.251-.391.589-.391.943v16a1.33 1.33 0 0 0 .391.943c.251.25.589.391.943.391h10.667c.354 0 .693-.141.943-.391s.39-.589.39-.943h-12V4zm14.106 7.52a.67.67 0 0 0-.459-.16c-.167.006-.327.076-.446.195a.67.67 0 0 0-.195.446c-.007.168.051.332.16.459l2.253 2.207H10.42c-.177 0-.346.07-.471.195s-.195.295-.195.471.07.346.195.471.295.195.471.195h9.667l-2.253 2.307c-.07.06-.127.133-.167.216s-.062.173-.066.265a.67.67 0 0 0 .045.269c.033.086.084.163.149.228s.143.116.228.149.177.049.269.045a.67.67 0 0 0 .265-.066c.083-.04.156-.097.216-.166l3.893-3.867-3.893-3.86z" fill-opacity=".6"/></svg>