<svg xmlns="http://www.w3.org/2000/svg" width="24" height="24" fill="none" xmlns:v="https://vecta.io/nano"><path d="M15 16H9a1 1 0 0 0-1 1 1 1 0 0 0 1 1h6a1 1 0 0 0 1-1 1 1 0 0 0-1-1zm-6-6h1a1 1 0 0 0 1-1 1 1 0 0 0-1-1H9a1 1 0 0 0-1 1 1 1 0 0 0 1 1zm6 2H9a1 1 0 0 0-1 1 1 1 0 0 0 1 1h6a1 1 0 0 0 1-1 1 1 0 0 0-1-1zm4.71 3.29a1 1 0 0 0-.33-.21.92.92 0 0 0-.76 0 1 1 0 0 0-.33.21 1.15 1.15 0 0 0-.21.33 1 1 0 0 0 .21 1.09A1 1 0 0 0 19 17a1 1 0 0 0 .38-.08 1.15 1.15 0 0 0 .33-.21 1 1 0 0 0 .21-1.09 1.15 1.15 0 0 0-.21-.33zM20 8.94c-.01-.092-.03-.182-.06-.27v-.09a1.07 1.07 0 0 0-.19-.28l-6-6a1.07 1.07 0 0 0-.28-.19.32.32 0 0 0-.09 0 .88.88 0 0 0-.33-.11H7a3 3 0 0 0-3 3v14a3 3 0 0 0 3 3h8a1 1 0 0 0 1-1 1 1 0 0 0-1-1H7a1 1 0 0 1-1-1V5a1 1 0 0 1 1-1h5v3a3 3 0 0 0 3 3h3v2a1 1 0 0 0 1 1 1 1 0 0 0 1-1V9v-.06zM15 8a1 1 0 0 1-1-1V5.41L16.59 8H15zm4 10a1 1 0 0 0-1 1v2a1 1 0 0 0 1 1 1 1 0 0 0 1-1v-2a1 1 0 0 0-1-1z" fill="#000" fill-opacity=".5"/></svg>