<svg xmlns="http://www.w3.org/2000/svg" width="11" height="15" fill="none" xmlns:v="https://vecta.io/nano"><g clip-path="url(#A)" fill="#131210"><path d="M5.449 0A5.44 5.44 0 0 0 .017 5.432c0 3.717 4.861 9.175 5.068 9.405a.49.49 0 0 0 .728 0c.207-.23 5.069-5.688 5.069-9.405A5.44 5.44 0 0 0 5.449 0zm0 13.762C3.813 11.818.995 7.984.995 5.432A4.46 4.46 0 0 1 5.449.978a4.46 4.46 0 0 1 4.454 4.454c0 2.551-2.818 6.385-4.454 8.329zm0-11.063c-1.507 0-2.733 1.226-2.733 2.733s1.226 2.733 2.733 2.733S8.182 6.94 8.182 5.432 6.956 2.699 5.449 2.699zm0 4.488c-.968 0-1.755-.787-1.755-1.755s.787-1.755 1.755-1.755 1.755.787 1.755 1.755-.787 1.755-1.755 1.755z"/></g><defs><clipPath id="A"><path fill="#fff" d="M0 0h10.898v15H0z"/></clipPath></defs></svg>