<svg xmlns="http://www.w3.org/2000/svg" width="24" height="24" fill="#fff" xmlns:v="https://vecta.io/nano"><path d="M16.787 8.213l-3.94 3.873a2 2 0 0 0-2.287 3.211 2 2 0 0 0 3.227-2.264l3.947-3.873-.947-.947zM12 2.833c-2.098-.002-4.153.596-5.922 1.724S2.899 7.296 2.016 9.199a11 11 0 0 0-.923 6.099A10.99 10.99 0 0 0 3.6 20.934l.2.233h16.4l.2-.233a11 11 0 0 0 2.507-5.636c.281-2.08-.039-4.195-.923-6.099s-2.293-3.514-4.062-4.642S14.098 2.831 12 2.833zm7.56 17H4.44a9.62 9.62 0 0 1-2.073-5.227h2.3v-1.333h-2.3a9.61 9.61 0 0 1 2.3-5.747L6.3 9.16l.94-.94-1.62-1.64c1.589-1.404 3.598-2.243 5.713-2.387v2.333h1.333V4.2c2.337.169 4.532 1.184 6.176 2.853s2.624 3.881 2.757 6.22h-2.32v1.333h2.353a9.62 9.62 0 0 1-2.073 5.227z"/></svg>