<svg xmlns="http://www.w3.org/2000/svg" width="40" height="40" fill="none" xmlns:v="https://vecta.io/nano"><path fill-rule="evenodd" d="M20 0c15.245 0 20 5.485 20 20s-4.755 20-20 20S0 34.515 0 20 4.755 0 20 0z" fill="#3ab4cf"/><g clip-path="url(#A)" fill="#fff"><path d="M12.3 12v14.483c0 .243-.097.476-.269.648s-.405.268-.648.268a.92.92 0 0 1-.648-.268c-.172-.171-.269-.405-.269-.648V15.667H9v10.817a2.39 2.39 0 0 0 .699 1.685c.447.447 1.053.698 1.684.699h17.233c.632-.001 1.238-.252 1.684-.699a2.39 2.39 0 0 0 .699-1.684V12H12.3zm17.233 14.483c0 .243-.097.476-.269.648a.92.92 0 0 1-.648.269H13.583a2.37 2.37 0 0 0 .183-.917V13.467h15.767v13.017zm-7.7-11.55h-6.6v7.333h6.6v-7.333zM20.367 20.8H16.7v-4.4h3.667v4.4zm2.933-5.867h4.767V16.4H23.3v-1.467zm0 2.934h4.767v1.467H23.3v-1.467zm0 2.933h4.767v1.467H23.3V20.8z"/></g><defs><clipPath id="A"><path fill="#fff" transform="translate(9 12)" d="M0 0h22v16.867H0z"/></clipPath></defs></svg>