<svg xmlns="http://www.w3.org/2000/svg" width="24" height="24" fill="none" xmlns:v="https://vecta.io/nano"><path d="M12 22.853a1.78 1.78 0 0 0 1.72-1.52h-3.507A1.78 1.78 0 0 0 12 22.853zm9.673-4.3A9.6 9.6 0 0 1 20 16.6a8.42 8.42 0 0 1-.9-3.207V10.1a7.23 7.23 0 0 0-.107-1.193 4.96 4.96 0 0 1-1.493-.56c.177.57.267 1.163.267 1.76V13.4a9.5 9.5 0 0 0 1.1 3.9 10.78 10.78 0 0 0 1.627 2H3.42a10.78 10.78 0 0 0 1.627-2 9.5 9.5 0 0 0 1.1-3.9v-3.3c-.004-.772.145-1.536.438-2.25a5.88 5.88 0 0 1 1.267-1.911c.544-.548 1.19-.982 1.902-1.279a5.88 5.88 0 0 1 2.247-.453 5.74 5.74 0 0 1 3.173.96A5 5 0 0 1 15 4v-.42c-.696-.342-1.444-.568-2.213-.667v-.84a.89.89 0 1 0-1.78 0v.873c-1.723.243-3.3 1.101-4.439 2.416S4.802 8.36 4.807 10.1v3.293a8.42 8.42 0 0 1-.9 3.207 9.6 9.6 0 0 1-1.647 1.953c-.071.063-.128.139-.167.226a.67.67 0 0 0-.059.274v.907c0 .177.07.346.195.471s.295.195.471.195h18.533c.177 0 .346-.07.471-.195s.195-.295.195-.471v-.907a.66.66 0 0 0-.059-.274.67.67 0 0 0-.167-.226z" fill-opacity=".5" fill="#000"/><path d="M20 7.333c1.841 0 3.333-1.492 3.333-3.333S21.841.667 20 .667 16.667 2.159 16.667 4 18.159 7.333 20 7.333z" fill="#e30713"/></svg>