<svg xmlns="http://www.w3.org/2000/svg" width="40" height="40" fill="none" xmlns:v="https://vecta.io/nano"><path fill-rule="evenodd" d="M20 40c11.046 0 20-8.954 20-20S31.046 0 20 0 0 8.954 0 20s8.954 20 20 20z" fill="#1f70f3"/><mask id="A" maskUnits="userSpaceOnUse" x="0" y="0" width="40" height="40" mask-type="alpha"><path fill-rule="evenodd" d="M20 40c11.046 0 20-8.954 20-20S31.046 0 20 0 0 8.954 0 20s8.954 20 20 20z" fill="#fff"/></mask><g mask="url(#A)"><path d="M27.657 6.902h-1.523c-.549 0-.994.445-.994.994v5.534c0 .549.445.994.994.994h1.523c.549 0 .994-.445.994-.994V7.896c0-.549-.445-.994-.994-.994zm-5.693 28.232v-5.243h6.454l-5.598 5.598a.5.5 0 0 1-.856-.355z" fill="#fff"/><path d="M28.764 29.566h-6.8v.628h6.139l.661-.628z" fill="#324293"/><path d="M30.162 14.042l-9.288-9.289a1.34 1.34 0 0 0-1.891 0l-9.288 9.289a3.71 3.71 0 0 0-.946 2.282v1.636c5.074 3.775 11.233 5.809 17.557 5.799a29.61 29.61 0 0 0 4.802-.391v-7.044a3.72 3.72 0 0 0-.946-2.282zm-3.856 11.223c-6.324.01-12.483-2.024-17.557-5.799v8.838a1.34 1.34 0 0 0 1.337 1.337h19.685a1.34 1.34 0 0 0 1.337-1.337v-3.43a29.7 29.7 0 0 1-4.802.391z" fill="#fff"/></g></svg>