<svg xmlns="http://www.w3.org/2000/svg" width="40" height="40" fill="none" xmlns:v="https://vecta.io/nano"><path fill-rule="evenodd" d="M20 0c15.245 0 20 5.485 20 20s-4.755 20-20 20S0 34.515 0 20 4.755 0 20 0z" fill="#64dc71"/><path d="M18.858 17.956c.447-.221.915-.399 1.396-.53l-2.987-8.042a1.49 1.49 0 0 0-.547-.706c-.25-.174-.548-.267-.853-.267s-.602.093-.853.267a1.49 1.49 0 0 0-.547.706L8.345 25.692a1.49 1.49 0 0 0-.096.726 1.5 1.5 0 0 0 .26.684c.142.203.333.367.554.478s.467.165.715.157h5.182a7.47 7.47 0 0 1-.388-1.493H9.778l6.078-16.337 3.002 8.049zm11.887-4.405h-7.467c-.396 0-.776.157-1.056.437s-.437.66-.437 1.056v2.128h.515a7.85 7.85 0 0 1 .978.037v-2.165h7.467v7.467h-1.008a7.81 7.81 0 0 1 .336 1.493h.672a1.5 1.5 0 0 0 .572-.114 1.49 1.49 0 0 0 .485-.324c.139-.139.249-.303.324-.485s.114-.375.114-.571v-7.467c0-.396-.157-.776-.437-1.056s-.66-.437-1.056-.437zM22.3 18.636c-1.255 0-2.482.372-3.526 1.07s-1.857 1.689-2.338 2.848a6.34 6.34 0 0 0-.361 3.667 6.35 6.35 0 0 0 1.737 3.25c.888.888 2.018 1.492 3.25 1.737a6.35 6.35 0 0 0 3.667-.361 6.34 6.34 0 0 0 2.848-2.338 6.35 6.35 0 0 0 1.07-3.526c-.002-1.683-.671-3.296-1.861-4.486s-2.803-1.859-4.486-1.861zm0 11.2c-.96 0-1.898-.285-2.696-.818s-1.42-1.291-1.788-2.178a4.85 4.85 0 0 1 1.052-5.289 4.85 4.85 0 0 1 2.485-1.328 4.86 4.86 0 0 1 2.804.276c.887.367 1.645.989 2.178 1.788s.818 1.736.818 2.696a4.86 4.86 0 0 1-4.853 4.853z" fill="#fff"/></svg>