<svg xmlns="http://www.w3.org/2000/svg" width="100" height="100" fill="#000" opacity=".3" xmlns:v="https://vecta.io/nano"><path d="M78.702 96.839c-.406 0-.814-.138-1.148-.42-.754-.634-.851-1.762-.217-2.515.253-.3.417-.651.489-1.041l13.412-72.413a2.27 2.27 0 0 0-1.815-2.64l-10.912-2.021c-.97-.18-1.61-1.111-1.431-2.08s1.103-1.622 2.081-1.432l10.912 2.02c3.164.588 5.262 3.64 4.677 6.801L81.339 93.512a5.82 5.82 0 0 1-1.269 2.69c-.353.42-.86.637-1.368.637z"/><path d="M74.734 100H11.407c-3.219 0-5.836-2.617-5.836-5.837V5.836C5.57 2.618 8.188 0 11.407 0h63.327c3.218 0 5.836 2.618 5.836 5.836v88.327c0 3.22-2.619 5.837-5.836 5.837zM11.407 3.571a2.27 2.27 0 0 0-2.265 2.265v88.327a2.27 2.27 0 0 0 2.265 2.265h63.327a2.27 2.27 0 0 0 2.265-2.265V5.836a2.27 2.27 0 0 0-2.265-2.265H11.407zm54.878 64.286H19.856c-.987 0-1.786-.799-1.786-1.786v-5.814c0-4.992 5.522-8.472 10.479-8.472h5.931c.986 0 1.786.799 1.786 1.786s-.8 1.785-1.786 1.785h-5.931c-3.486 0-6.907 2.428-6.907 4.901v4.029h42.857v-4.794c0-2.087-2.978-4.135-6.013-4.135h-7.117c-.986 0-1.786-.798-1.786-1.785s.8-1.786 1.786-1.786h7.117c4.534 0 9.584 3.165 9.584 7.706v6.579c0 .987-.799 1.786-1.785 1.786zm-7.142-27.678c-.049 0-.098-.002-.147-.006-.984-.082-1.716-.943-1.634-1.926l.893-10.899c-.006-6.152-4.765-11.276-10.612-11.276h-9.145c-5.849 0-10.606 5.123-10.606 11.422l.887 10.753c.081.983-.651 1.844-1.635 1.926-.983.066-1.843-.65-1.924-1.634l-.893-10.899c-.007-8.414 6.353-15.14 14.17-15.14h9.145c7.818 0 14.177 6.727 14.177 14.994L60.92 38.54c-.077.933-.857 1.64-1.778 1.64z"/><path d="M43.071 57.143c-5.152 0-9.828-1.907-12.509-5.101-3.249-3.875-5.349-9.261-5.349-13.724V31.12c0-3.036.069-4.792 1.482-5.571 1.26-.705 2.452.052 3.503.711 1.396.881 3.507 2.209 6.952 2.209 2.781 0 6.128-.85 9.363-1.672 5.227-1.329 9.739-2.473 12.467-.355 1.293 1.007 1.949 2.579 1.949 4.678v7.197c0 4.462-2.1 9.849-5.349 13.724-2.68 3.194-7.357 5.101-12.508 5.101zm-14.266-27.54l-.019 1.518v7.198c0 3.616 1.814 8.21 4.513 11.429 1.98 2.359 5.724 3.824 9.773 3.824s7.791-1.465 9.771-3.824c2.7-3.219 4.514-7.813 4.514-11.429v-7.198c0-.938-.192-1.564-.57-1.857-1.349-1.05-5.623.04-9.394.995-3.449.876-7.013 1.782-10.242 1.782-4.019 0-6.726-1.446-8.345-2.439zm32.123 52.54h-37.5c-.986 0-1.786-.799-1.786-1.786s.8-1.785 1.786-1.785h37.5c.986 0 1.786.798 1.786 1.785s-.8 1.786-1.786 1.786zm-17.857 7.142H23.428c-.986 0-1.786-.798-1.786-1.785s.8-1.786 1.786-1.786h19.643c.986 0 1.785.799 1.785 1.786s-.799 1.785-1.785 1.785z"/></svg>