<svg xmlns="http://www.w3.org/2000/svg" width="100" height="100" fill="#000" opacity=".3" xmlns:v="https://vecta.io/nano"><path d="M72.917 70.833H27.083A2.08 2.08 0 0 0 25 72.916c0 1.151.932 2.084 2.083 2.084h45.833C74.068 75 75 74.068 75 72.917s-.932-2.083-2.084-2.083zm-8.334 12.5H35.416a2.08 2.08 0 0 0-2.083 2.083c0 1.151.932 2.083 2.083 2.083h29.167a2.08 2.08 0 1 0 0-4.166zM50 12.5c-13.786 0-25 11.214-25 25s11.214 25 25 25 25-11.214 25-25-11.214-25-25-25zM29.377 39.583h10.244c.215 6.686 1.471 13.189 3.707 17.555-7.565-2.581-13.12-9.343-13.951-17.555zm10.244-4.167H29.377c.832-8.211 6.386-14.974 13.951-17.555-2.236 4.366-3.492 10.869-3.707 17.555zM50 58.333c-2.344 0-5.778-7.425-6.173-18.75h12.345c-.395 11.324-3.829 18.75-6.173 18.75zm-6.173-22.917c.395-11.325 3.829-18.75 6.173-18.75s5.778 7.425 6.173 18.75H43.827zm12.844 21.722c2.236-4.366 3.492-10.869 3.707-17.555h10.244c-.831 8.212-6.386 14.974-13.951 17.555zm3.707-21.722c-.215-6.686-1.471-13.189-3.707-17.555 7.565 2.581 13.12 9.344 13.951 17.555H60.379zM79.167 0H20.833C16.237 0 12.5 3.737 12.5 8.333v83.333c0 4.596 3.737 8.333 8.333 8.333h58.333c4.596 0 8.333-3.737 8.333-8.333V8.333A8.34 8.34 0 0 0 79.167 0zm4.167 91.667c0 2.297-1.87 4.167-4.167 4.167H20.833c-2.297 0-4.167-1.87-4.167-4.167V8.333c0-2.297 1.87-4.167 4.167-4.167h58.333c2.297 0 4.167 1.87 4.167 4.167v83.333z"/></svg>