<svg xmlns="http://www.w3.org/2000/svg" width="36" height="36" fill="none" xmlns:v="https://vecta.io/nano"><path d="M9 0a2.26 2.26 0 0 0-2.25 2.25v31.5A2.26 2.26 0 0 0 9 36h22.5a2.26 2.26 0 0 0 2.25-2.25V9l-9-9H9z" fill="#e2e5e7"/><path d="M27 9h6.75l-9-9v6.75A2.26 2.26 0 0 0 27 9z" fill="#b0b7bd"/><path d="M33.75 15.75L27 9h6.75v6.75z" fill="#cad1d8"/><path d="M29.25 29.25a1.13 1.13 0 0 1-1.125 1.125H3.375A1.13 1.13 0 0 1 2.25 29.25V18a1.13 1.13 0 0 1 1.125-1.125h24.75A1.13 1.13 0 0 1 29.25 18v11.25z" fill="#f15642"/><path d="M7.154 21.315c0-.297.234-.621.611-.621h2.078c1.17 0 2.223.783 2.223 2.284 0 1.422-1.053 2.214-2.223 2.214H8.341v1.188c0 .396-.252.62-.576.62-.297 0-.611-.224-.611-.62v-5.065zm1.187.512v2.241h1.502c.603 0 1.08-.532 1.08-1.09 0-.629-.477-1.151-1.08-1.151H8.341zM13.828 27c-.297 0-.621-.162-.621-.557v-5.11c0-.323.324-.558.621-.558h2.06c4.111 0 4.021 6.225.081 6.225h-2.141zm.567-5.127v4.03h1.493c2.429 0 2.537-4.03 0-4.03h-1.493zm6.971.072v1.43h2.294a.7.7 0 0 1 .648.638c0 .297-.324.54-.648.54h-2.294v1.889c0 .315-.224.557-.539.557-.396 0-.638-.242-.638-.557v-5.11c0-.323.243-.558.638-.558h3.158c.396 0 .63.235.63.558a.62.62 0 0 1-.63.612h-2.619v.001z" fill="#fff"/><path d="M28.125 30.375H6.75V31.5h21.375a1.13 1.13 0 0 0 1.125-1.125V29.25a1.13 1.13 0 0 1-1.125 1.125z" fill="#cad1d8"/></svg>