<svg xmlns="http://www.w3.org/2000/svg" width="16" height="16" fill="none" xmlns:v="https://vecta.io/nano"><g clip-path="url(#A)"><path d="M3.218 6.924c1.28 2.516 3.342 4.569 5.858 5.858l1.956-1.955c.24-.24.595-.32.907-.213a10.14 10.14 0 0 0 3.173.507.89.89 0 0 1 .889.889v3.102a.89.89 0 0 1-.889.889C6.765 16 0 9.236 0 .889A.89.89 0 0 1 .889 0H4a.89.89 0 0 1 .889.889 10.1 10.1 0 0 0 .507 3.173.89.89 0 0 1-.222.907L3.218 6.924z" fill="#000" fill-opacity=".6"/></g><defs><clipPath id="A"><path fill="#fff" d="M0 0h16v16H0z"/></clipPath></defs></svg>