<svg xmlns="http://www.w3.org/2000/svg" width="256" height="461" fill="none" xmlns:v="https://vecta.io/nano"><path d="M230.328.924H25.817C11.921.924.652 12.222.652 26.165v408.972c0 13.934 11.264 25.241 25.165 25.241h204.516c13.896 0 25.165-11.307 25.165-25.241V26.165C255.493 12.222 244.224.924 230.328.924zm-126.76 19.084h49.052c1.476 0 2.672 1.199 2.672 2.674s-1.196 2.675-2.672 2.675h-49.052a2.67 2.67 0 1 1 0-5.349zm24.726 421.184c-8.336 0-15.097-6.77-15.097-15.142s6.761-15.147 15.097-15.147 15.097 6.775 15.097 15.147-6.755 15.142-15.097 15.142z" stroke="#1f70f3" stroke-width=".5" stroke-miterlimit="10"/><circle cx="128" cy="120" r="46.5" stroke="#e4e7ef"/><circle cx="128" cy="120" r="33" fill="#f2f4fa"/><path d="M144.016 107.677l-3.055-3.046c-.844-.841-2.211-.841-3.055 0l-4.583 6.093c-.7 1.031-.843 2.204 0 3.046l1.87 1.864c-1.387 1.858-3.051 3.884-4.925 5.753-2.117 2.112-4.475 4.033-6.594 5.61l-1.807-1.803c-.843-.841-2.02-.698-3.055 0l-6.11 4.57c-1.024.706-.844 2.206 0 3.047l3.055 3.046c1.687 1.683 3.882 1.144 6.11 0 0 0 6.744-3.775 12.518-9.533 5.431-5.416 9.631-12.555 9.631-12.555.876-2.4 1.687-4.408 0-6.092zm-1.527 4.571c-1.805 3.428-5.811 8.706-9.166 12.186-3.867 4.184-12.984 9.902-12.984 9.902-.704.369-2.657.397-3.194-.139l-1.944-1.938c-.401-.671-.582-1.449 0-1.938l3.888-2.909c.659-.445 1.408-.535 1.944 0l2.396 2.388c.565-.397 9.563-6.294 14.569-14.413l-2.454-2.447c-.537-.535-.446-1.282 0-1.938l2.916-3.878c.537-.715 1.408-.535 1.945 0l1.943 1.939c.764.715.544 2.382.141 3.185z" fill="#1f70f3"/></svg>