<svg xmlns="http://www.w3.org/2000/svg" width="100" height="100" fill="none" xmlns:v="https://vecta.io/nano"><g opacity=".3" clip-path="url(#A)" fill="#000"><path d="M76.667 44.918h-5V41.85l5.795-2.395c3.424-1.361 5.097-5.239 3.737-8.663s-5.239-5.097-8.663-3.737l-.868.345V6.667A6.67 6.67 0 0 0 65 0H33.334a6.67 6.67 0 0 0-6.667 6.667v33.282a10.23 10.23 0 0 0-9.61 10.303 149.62 149.62 0 0 1-.083 15.315l-.258 9.475c.032 3.004 1.084 5.908 2.982 8.237l2.787 4.235C25.254 91.727 25 92.333 25 95a5 5 0 0 0 5 5h20a5 5 0 0 0 5-5v-3.415c-.001-.595.317-1.144.833-1.44a25.61 25.61 0 0 0 8.405-6.895H65a6.67 6.67 0 0 0 6.437-5.022c.078 0 .152.023.23.023h1.717a6.64 6.64 0 0 0 5.043-10.977c1.682-.993 2.836-2.681 3.151-4.609a6.59 6.59 0 0 0-1.52-5.373c2.576-1.529 3.813-4.591 3.021-7.48s-3.417-4.893-6.413-4.895zm0 3.333c1.841 0 3.333 1.492 3.333 3.333s-1.492 3.333-3.333 3.333h-5c-1.841 0-3.333-1.492-3.333-3.333s1.492-3.333 3.333-3.333h5zM75 64.918h-3.333c-1.841 0-3.333-1.492-3.333-3.333s1.492-3.333 3.333-3.333H75c1.841 0 3.333 1.492 3.333 3.333S76.841 64.918 75 64.918zm-1.237-34.763a3.34 3.34 0 0 1 4.329 1.881 3.34 3.34 0 0 1-1.881 4.329l-4.545 1.88v-7.258l2.097-.832zM42.06 6.667c-.632.002-1.21-.355-1.49-.922l-1.207-2.412H58.97l-1.207 2.412c-.28.566-.858.924-1.49.922H42.06zM54.2 87.245a5 5 0 0 0-2.533 4.333V95c0 .921-.746 1.667-1.667 1.667H30c-.921 0-1.667-.746-1.667-1.667v-1.667c0-3.578-2.315-6.382-3.927-9-2.962-4.802-4-4.705-4.368-9.545-.193-2.598.372-10.135.447-12.888.042-1.667-.047-7.773-.095-11.693-.013-1.834.704-3.599 1.992-4.904s3.043-2.046 4.878-2.057c3.822 0 5.097 2.4 8.953 3.5a49.31 49.31 0 0 0 7.333 1.432 1.63 1.63 0 0 1 1.46 1.598v.278c-.012.582-.343 5.667-8.333 5.667a.79.79 0 0 0-.307.032c-1.275.105-7.105-1.082-8.202-3.277a1.67 1.67 0 1 0-2.984 1.5 6.05 6.05 0 0 0 1.485 1.842v20.767a6.67 6.67 0 0 0 6.667 6.667h26.443c-1.693 1.549-3.565 2.89-5.577 3.995zm2.333-58.882l-3.968-1.697a32.78 32.78 0 0 0 2.153-2.41 8.41 8.41 0 0 1 1.813 4.107h.002zM41.7 29.548c.265-6.19 5.628-9.307 10.355-7.295a20.15 20.15 0 0 1-10.352 7.295H41.7zm8.118-.427l6.703 2.865c-1.46 10.418-12.48 10.722-14.55.942a19.77 19.77 0 0 0 7.85-3.807h-.003zM60 54.667v8.667h-3.333v-6.667A1.67 1.67 0 0 0 55 55c-.921 0-1.667.746-1.667 1.667v6.667H45l-.015-6.738c2.053-1.677 3.275-4.165 3.348-6.815-.012-2.608-2.037-4.763-4.638-4.938A10.91 10.91 0 0 1 60 54.667zm-21.667 8.667V58.98a14.9 14.9 0 0 0 3.333-.637v4.99h-3.333zM65 79.917H33.334c-1.841 0-3.333-1.492-3.333-3.333V57.75a20.33 20.33 0 0 0 5 1.245v4.338c0 1.841 1.492 3.333 3.333 3.333H60c1.841 0 3.333-1.492 3.333-3.333v-8.667c.008-5.663-3.208-10.835-8.29-13.333a14.21 14.21 0 0 0 4.922-10.39v-.025a11.96 11.96 0 0 0-4.453-10.51C48.425 15.273 38.334 20 38.334 30c-.115 4.307 1.68 8.443 4.905 11.3-1.471.691-2.81 1.632-3.958 2.782a39.02 39.02 0 0 1-2.157-.538c-2.693-.768-4-2.525-7.123-3.302V6.667c0-1.841 1.492-3.333 3.333-3.333h2.303l1.952 3.903c.842 1.698 2.576 2.769 4.472 2.763h14.213c1.895.006 3.629-1.066 4.472-2.763l1.952-3.903H65c1.841 0 3.333 1.492 3.333 3.333v39.178a6.6 6.6 0 0 0-3.302 5.103c-.205 2.137.643 4.24 2.272 5.637-1.46 1.253-2.301 3.08-2.304 5.003s.833 3.753 2.289 5.01a6.6 6.6 0 0 0 .968 10.685c-.33 1.535-1.686 2.632-3.257 2.633zm8.383-5h-1.717c-1.841 0-3.333-1.492-3.333-3.333s1.492-3.333 3.333-3.333h1.717c1.841 0 3.333 1.492 3.333 3.333s-1.492 3.333-3.333 3.333zm-15.05-1.584H40A1.67 1.67 0 0 0 38.333 75c0 .921.746 1.667 1.667 1.667h18.333A1.67 1.67 0 0 0 60 75a1.67 1.67 0 0 0-1.667-1.667z"/></g><defs><clipPath id="A"><path fill="#fff" d="M0 0h100v100H0z"/></clipPath></defs></svg>