<svg xmlns="http://www.w3.org/2000/svg" width="64" height="64" fill="#000" xmlns:v="https://vecta.io/nano"><path d="M38 52a8 8 0 0 1-5.657-13.656A8 8 0 0 1 46 44a8.01 8.01 0 0 1-8 8zm0-12a4 4 0 0 0-2.829 6.828A4 4 0 0 0 42 44c-.001-1.06-.423-2.077-1.173-2.827A4 4 0 0 0 38 40zm16 18H22a4 4 0 0 1-4-4V36a4 4 0 0 1 4-4h6.56l1.086-3.264A4 4 0 0 1 33.442 26h9.116a4 4 0 0 1 3.796 2.736L47.44 32H54a4 4 0 0 1 4 4v18a4 4 0 0 1-4 4zm-32-4h32V36h-9.44l-2-6h-9.12l-2 6H22v18zm32-32h4v4h-4v-4zm0-8h4v4h-4v-4zm0-8h4v4h-4V6zm-8 0h4v4h-4V6zm-8 0h4v4h-4V6zm-8 0h4v4h-4V6zm-8 0h4v4h-4V6zm-8 0h4v4h-4V6zM6 6h4v4H6V6zm0 8h4v4H6v-4zm0 8h4v4H6v-4zm0 8h4v4H6v-4zm0 8h4v4H6v-4zm0 8h4v4H6v-4zm0 8h4v4H6v-4z" fill-opacity=".3"/></svg>