<svg xmlns="http://www.w3.org/2000/svg" width="40" height="40" fill="none" xmlns:v="https://vecta.io/nano"><path fill-rule="evenodd" d="M20 0c15.245 0 20 5.485 20 20s-4.755 20-20 20S0 34.515 0 20 4.755 0 20 0z" fill="#e8436b"/><path d="M31.8 17.267h-6.393a.2.2 0 0 0-.2.2v1.199a.2.2 0 0 0 .2.2H31.8a.2.2 0 0 0 .2-.2v-1.199a.2.2 0 0 0-.2-.2zm-3.346 3.396h-3.046a.2.2 0 0 0-.2.2v1.199a.2.2 0 0 0 .2.2h3.046a.2.2 0 0 0 .2-.2v-1.199a.2.2 0 0 0-.2-.2zm-8.333-5.631H19.04a.28.28 0 0 0-.28.28v6.193c0 .09.043.172.115.225l3.718 2.712c.125.09.3.065.389-.06l.642-.877v-.002a.28.28 0 0 0-.062-.39l-3.164-2.287v-5.514c.002-.155-.125-.28-.277-.28zm8.178 8.775h-1.443a.41.41 0 0 0-.347.192 8.05 8.05 0 0 1-1.111 1.391 7.92 7.92 0 0 1-2.53 1.706c-.981.415-2.023.624-3.096.624a7.92 7.92 0 0 1-7.332-4.859c-.415-.979-.624-2.02-.624-3.096a7.91 7.91 0 0 1 .624-3.096 7.92 7.92 0 0 1 4.235-4.235c.979-.415 2.023-.624 3.097-.624s2.118.21 3.096.624a7.92 7.92 0 0 1 2.53 1.706 8 8 0 0 1 1.111 1.391.41.41 0 0 0 .347.192h1.443c.172 0 .282-.18.205-.332-1.628-3.239-4.929-5.344-8.615-5.386-5.396-.067-9.879 4.35-9.889 9.741a9.77 9.77 0 0 0 18.504 4.395.23.23 0 0 0-.205-.332z" fill-opacity=".9" fill="#fff"/></svg>