<svg xmlns="http://www.w3.org/2000/svg" width="56" height="56" fill="none" xmlns:v="https://vecta.io/nano"><path d="M28 .304C12.729.304.304 12.729.304 28S12.729 55.696 28 55.696 55.696 43.271 55.696 28 43.271.304 28 .304zm9.956 28.934l-15.239 9.206c-.218.131-.468.201-.722.204s-.505-.062-.727-.189-.405-.309-.532-.529-.193-.471-.192-.726v-18.41c-.002-.255.065-.505.192-.726s.311-.403.532-.53.472-.191.727-.188.504.073.722.204l15.239 9.206A1.45 1.45 0 0 1 38.651 28a1.45 1.45 0 0 1-.696 1.238z" fill="#fff"/></svg>