<svg xmlns="http://www.w3.org/2000/svg" width="24" height="24" fill="none" xmlns:v="https://vecta.io/nano"><path d="M10.567 12.46a2 2 0 0 0 1.064 3.388 2 2 0 0 0 2.157-2.821l3.947-3.873-.94-.94-3.94 3.873a2 2 0 0 0-2.287.373zM21.72 8.667c-.441.162-.904.261-1.373.293a9.6 9.6 0 0 1 1.287 4.287H19.28v1.333h2.353a9.62 9.62 0 0 1-2.073 5.227H4.44a9.62 9.62 0 0 1-2.073-5.227h2.3v-1.333h-2.3c.117-2.108.926-4.118 2.3-5.72L6.3 9.16l.94-.94-1.62-1.64c1.589-1.404 3.598-2.243 5.713-2.387v2.333h1.333V4.2c.812.054 1.614.211 2.387.467A5.01 5.01 0 0 1 15 4a4.93 4.93 0 0 1 .06-.727c-2.268-.66-4.689-.571-6.902.252s-4.104 2.338-5.39 4.32-1.899 4.325-1.749 6.682a10.99 10.99 0 0 0 2.582 6.406l.2.233h16.4l.2-.233c1.422-1.672 2.309-3.733 2.547-5.915a10.97 10.97 0 0 0-1.213-6.325l-.013-.027z" fill-opacity=".5" fill="#000"/><path d="M20 7.333c1.841 0 3.333-1.492 3.333-3.333S21.841.667 20 .667 16.667 2.159 16.667 4 18.159 7.333 20 7.333z" fill="#e30713"/></svg>