<svg xmlns="http://www.w3.org/2000/svg" width="18" height="18" fill="none" xmlns:v="https://vecta.io/nano"><g clip-path="url(#A)"><path d="M.2 7.225L6.617.189c.254-.252.667-.252.921 0 .146.145.199.342.177.531V4.51a9.65 9.65 0 0 1 9.647 9.647c0 1.366-.288 2.665-.801 3.843-.761-4.019-4.596-7.071-8.836-7.071l-.011 3.781c.022.189-.03.385-.177.531a.65.65 0 0 1-.467.202c-.2 0-.372-.097-.49-.24L.2 8.206c-.136-.135-.193-.314-.184-.49-.009-.177.049-.355.184-.49zm6.228 5.884V9.654l1.94-.011c2.68 0 6.321 2.09 7.708 3.869-.021-2.416-3.171-7.583-7.708-7.723-.334-.01-1.94.006-1.94.006V2.321l-4.92 5.394 4.92 5.394z" fill="#1f70f3"/></g><defs><clipPath id="A"><path fill="#fff" transform="matrix(-1 0 0 1 17.3763 0)" d="M0 0h17.376v18H0z"/></clipPath></defs></svg>