<svg xmlns="http://www.w3.org/2000/svg" width="16" height="16" fill="none" xmlns:v="https://vecta.io/nano"><path d="M14.4 4.8H9.91l.898-2.694c.162-.486.08-1.026-.22-1.442S9.802 0 9.29 0H8a.8.8 0 0 0-.615.288L3.625 4.8H1.6A1.6 1.6 0 0 0 0 6.4v7.2a1.6 1.6 0 0 0 1.6 1.6h10.646a1.61 1.61 0 0 0 1.498-1.038l2.206-5.881A.8.8 0 0 0 16 8V6.4a1.6 1.6 0 0 0-1.6-1.6zM1.6 6.4h1.6v7.2H1.6V6.4zm12.8 1.455L12.246 13.6H4.8V5.89L8.374 1.6h.917l-1.25 3.746a.8.8 0 0 0 .109.722.8.8 0 0 0 .65.332h5.6v1.455z" fill="#000" fill-opacity=".6"/></svg>