<svg xmlns="http://www.w3.org/2000/svg" width="20" height="20" fill="none" xmlns:v="https://vecta.io/nano"><path d="M13.125 10.625h-6.25c-.345 0-.625.28-.625.625s.28.625.625.625h6.25c.345 0 .625-.28.625-.625s-.28-.625-.625-.625zm1.25-3.75h-8.75c-.345 0-.625.28-.625.625s.28.625.625.625h8.75c.345 0 .625-.28.625-.625s-.28-.625-.625-.625zM10 0C4.478 0 0 3.917 0 8.75c0 2.762 1.466 5.221 3.75 6.824V20l4.381-2.658A11.47 11.47 0 0 0 10 17.5c5.523 0 10-3.918 10-8.75S15.523 0 10 0zm0 16.25c-.73 0-1.435-.085-2.113-.229l-2.943 1.769.039-2.899C2.729 13.534 1.25 11.291 1.25 8.75c0-4.142 3.917-7.5 8.75-7.5s8.75 3.358 8.75 7.5-3.918 7.5-8.75 7.5z" fill="#000" fill-opacity=".6"/></svg>