<svg xmlns="http://www.w3.org/2000/svg" width="40" height="40" fill="none" xmlns:v="https://vecta.io/nano"><path fill-rule="evenodd" d="M20 0c15.245 0 20 5.485 20 20s-4.755 20-20 20S0 34.515 0 20 4.755 0 20 0z" fill="#49a09d"/><path d="M28.406 21.046V20.5v-.553l1.38-1.207a1.44 1.44 0 0 0 .471-.867c.05-.336-.02-.678-.198-.966l-1.696-2.875a1.44 1.44 0 0 0-1.243-.719c-.156-.001-.312.023-.46.072l-1.747.589c-.302-.2-.616-.38-.942-.539l-.366-1.811a1.44 1.44 0 0 0-1.437-1.157h-3.364a1.44 1.44 0 0 0-1.437 1.157L17 13.435c-.328.159-.645.339-.949.539l-1.711-.618a1.44 1.44 0 0 0-.46-.043c-.252 0-.5.067-.718.193a1.44 1.44 0 0 0-.526.526l-1.696 2.875a1.44 1.44 0 0 0 .295 1.804l1.358 1.243v1.1l-1.358 1.207a1.44 1.44 0 0 0-.295 1.833l1.696 2.875c.126.218.307.4.526.526a1.44 1.44 0 0 0 .718.193c.156.001.312-.023.46-.072l1.747-.589a8.16 8.16 0 0 0 .942.539l.367 1.811a1.44 1.44 0 0 0 1.438 1.157h3.393c.337.006.666-.106.929-.317a1.44 1.44 0 0 0 .509-.84l.366-1.811c.328-.159.645-.339.949-.539l1.739.589c.148.049.304.073.46.072a1.44 1.44 0 0 0 1.244-.719l1.639-2.875c.168-.288.23-.626.176-.955a1.44 1.44 0 0 0-.471-.849l-1.359-1.244zM27.12 26.25l-2.465-.834c-.577.489-1.237.871-1.948 1.128l-.51 2.58h-3.393l-.51-2.552c-.705-.265-1.361-.646-1.941-1.128l-2.472.805-1.696-2.875 1.955-1.725c-.133-.744-.133-1.506 0-2.25l-1.955-1.775 1.696-2.875 2.465.834a6.37 6.37 0 0 1 1.948-1.128l.51-2.58h3.393l.51 2.552a6.73 6.73 0 0 1 1.941 1.128l2.473-.805 1.696 2.875-1.955 1.725c.133.744.133 1.506 0 2.25l1.955 1.775-1.696 2.875zm-6.62-1.437a4.31 4.31 0 0 1-3.049-7.362 4.31 4.31 0 0 1 7.362 3.049 4.27 4.27 0 0 1-4.312 4.312zm0-7.187a2.81 2.81 0 0 0-2.875 2.875 2.81 2.81 0 0 0 2.875 2.875 2.81 2.81 0 0 0 2.875-2.875 2.81 2.81 0 0 0-2.875-2.875z" fill="#fff"/></svg>