<svg xmlns="http://www.w3.org/2000/svg" width="24" height="24" fill="#000" xmlns:v="https://vecta.io/nano"><path d="M22.413 11.687C20.167 7.533 16.227 5.02 11.867 5.02S3.56 7.533 1.333 11.687L1.146 12l.173.32c2.247 4.153 6.187 6.667 10.547 6.667s8.307-2.48 10.547-6.667l.173-.32-.173-.313zM11.867 17.62c-3.753 0-7.2-2.093-9.2-5.62 2-3.527 5.447-5.62 9.2-5.62s7.16 2.1 9.193 5.62c-2.033 3.527-5.447 5.62-9.193 5.62zm.193-10.173a4.58 4.58 0 0 0-2.534.788c-.748.507-1.329 1.225-1.67 2.063s-.425 1.757-.243 2.642a4.58 4.58 0 0 0 1.265 2.333c.643.636 1.46 1.066 2.347 1.238a4.57 4.57 0 0 0 2.639-.274c.833-.35 1.544-.939 2.043-1.693a4.57 4.57 0 0 0 .759-2.543c-.003-.602-.124-1.197-.357-1.752s-.573-1.058-1.001-1.481-.935-.757-1.493-.984-1.154-.341-1.756-.337zm0 7.813a3.24 3.24 0 0 1-2.253-5.535A3.24 3.24 0 0 1 15.333 12c.002.43-.082.855-.246 1.253s-.405.758-.71 1.061-.666.543-1.064.705a3.25 3.25 0 0 1-1.254.241z" fill-opacity=".5"/></svg>