<svg xmlns="http://www.w3.org/2000/svg" width="40" height="40" fill="none" xmlns:v="https://vecta.io/nano"><path fill-rule="evenodd" d="M20 0c15.245 0 20 5.485 20 20s-4.755 20-20 20S0 34.515 0 20 4.755 0 20 0z" fill="#1a1a2d"/><path d="M27.527 29.667H12.473a1.13 1.13 0 0 1-.434-.084 1.14 1.14 0 0 1-.369-.243 1.13 1.13 0 0 1-.337-.799V11.46a1.17 1.17 0 0 1 .413-.863c.126-.106.273-.185.432-.23s.325-.057.488-.033H14v1.333h-1.333v16.667h14.667V11.667H26v-1.333h1.5a1.13 1.13 0 0 1 .442.076 1.14 1.14 0 0 1 .378.242c.108.105.195.231.255.37s.09.288.091.44v17.08a1.13 1.13 0 0 1-.337.799c-.106.105-.231.187-.369.243a1.13 1.13 0 0 1-.434.084zm-8.42-5.494L15.533 20.6a.67.67 0 0 1-.157-.46.66.66 0 0 1 .198-.444c.12-.117.279-.186.447-.192a.66.66 0 0 1 .458.163l2.627 2.627 5.76-5.76a.67.67 0 0 1 .459-.16c.167.006.327.076.446.195a.67.67 0 0 1 .195.446c.007.168-.051.332-.16.459l-6.7 6.7zm6.226-9.84H14.667v-2.447a1.56 1.56 0 0 1 1.553-1.553h1.193c.147-.574.48-1.082.948-1.445s1.043-.56 1.635-.56 1.167.197 1.635.56.801.871.948 1.445h1.193a1.56 1.56 0 0 1 1.56 1.553v2.447zM16 13h8v-1.113a.22.22 0 0 0-.22-.22h-2.447V11a1.33 1.33 0 0 0-.391-.943c-.251-.25-.589-.391-.943-.391a1.33 1.33 0 0 0-.943.391c-.25.251-.391.589-.391.943v.667H16.22a.22.22 0 0 0-.155.064.24.24 0 0 0-.048.071.22.22 0 0 0-.017.084V13z" fill="#fff"/></svg>