<svg xmlns="http://www.w3.org/2000/svg" width="40" height="40" fill="none" xmlns:v="https://vecta.io/nano"><path fill-rule="evenodd" d="M20 0c15.245 0 20 5.485 20 20s-4.755 20-20 20S0 34.515 0 20 4.755 0 20 0z" fill="#38d5a7"/><path d="M20 19.278h-2.167v1.444H20v-1.444zm6.103-2.044a15.96 15.96 0 0 0-5.106-5.178 6.96 6.96 0 0 0-3.187-1.061c-1.133-.088-2.27.103-3.313.555a6.21 6.21 0 0 0-3.481 4.622l-.144.982A2.89 2.89 0 0 0 8.444 20v4.427a1.44 1.44 0 0 0 .423 1.021c.271.27.638.423 1.021.423v-4.427V20c0-.383.152-.75.423-1.021s.638-.423 1.021-.423h13.527a5.26 5.26 0 0 1 5.251 5.251v.527h-1.445a3.27 3.27 0 0 0-6.255 1.774 3.27 3.27 0 0 0 6.494-.329h1.206c.383 0 .75-.152 1.021-.423s.423-.638.423-1.021v-.527a6.7 6.7 0 0 0-5.453-6.572zm-11.158-.123h-2.939c0-.224.065-.455.108-.722a4.71 4.71 0 0 1 2.831-3.611v4.333zm1.444 0v-4.637a5.9 5.9 0 0 1 3.871.838c1.577.982 2.938 2.275 4.001 3.799h-7.872zm9.244 10.386a1.81 1.81 0 0 1-1.003-.304c-.297-.198-.528-.48-.665-.81a1.81 1.81 0 0 1-.103-1.043 1.8 1.8 0 0 1 1.418-1.418 1.81 1.81 0 0 1 1.043.103c.33.137.612.368.81.665a1.81 1.81 0 0 1 .304 1.003c0 .479-.19.938-.529 1.277s-.798.529-1.277.529zm-8.399-3.164a3.27 3.27 0 0 0-6.255 1.774 3.27 3.27 0 0 0 6.494-.329H21.3v-.181a4.33 4.33 0 0 1 .144-1.264h-4.211zm-3.012 3.163a1.81 1.81 0 0 1-1.003-.304c-.297-.198-.528-.48-.665-.81a1.81 1.81 0 0 1-.103-1.043 1.8 1.8 0 0 1 1.418-1.418 1.81 1.81 0 0 1 1.043.103c.33.137.612.368.81.665a1.81 1.81 0 0 1 .304 1.003c0 .479-.19.938-.529 1.277s-.798.529-1.277.529z" fill="#fff"/></svg>