<svg xmlns="http://www.w3.org/2000/svg" width="40" height="40" fill="none" xmlns:v="https://vecta.io/nano"><path fill-rule="evenodd" d="M20 0c15.245 0 20 5.485 20 20s-4.755 20-20 20S0 34.515 0 20 4.755 0 20 0z" fill="#2f3949"/><g clip-path="url(#A)"><path d="M13.25 28.125c0 .497.197.974.549 1.326s.829.549 1.326.549h11.25c.497 0 .974-.198 1.326-.549s.549-.829.549-1.326V15h-15v13.125zm3.567-6.75l3.491-3.682a.6.6 0 0 1 .442-.193.6.6 0 0 1 .442.193l3.491 3.682c.394.415.115 1.125-.442 1.125H22v4.375c0 .166-.066.325-.183.442s-.276.183-.442.183h-1.25c-.166 0-.325-.066-.442-.183s-.183-.276-.183-.442V22.5h-2.241c-.557 0-.836-.71-.442-1.125zM28.875 11.25h-4.687l-.367-.73a.94.94 0 0 0-.84-.52h-4.465c-.174-.001-.345.048-.493.14s-.267.224-.343.38l-.367.73h-4.687c-.166 0-.325.066-.442.183s-.183.276-.183.442v1.25c0 .166.066.325.183.442s.276.183.442.183h16.25c.166 0 .325-.066.442-.183s.183-.276.183-.442v-1.25c0-.166-.066-.325-.183-.442s-.276-.183-.442-.183z" fill="#fff"/></g><defs><clipPath id="A"><path fill="#fff" transform="translate(12 10)" d="M0 0h17.5v20H0z"/></clipPath></defs></svg>