<svg xmlns="http://www.w3.org/2000/svg" width="28" height="34" fill="none" xmlns:v="https://vecta.io/nano"><path d="M14.252 0H14C6.554 0 .517 6.036.517 13.483c0 11.021 11.115 19.052 13.16 20.418.096.064.208.098.322.1a.58.58 0 0 0 .322-.1c1.911-1.278 11.666-8.336 13.008-18.172C28.432 7.65 22.406.152 14.252 0z" fill="#ff9500"/><path d="M14 24.621a11.14 11.14 0 0 0 11.138-11.138A11.14 11.14 0 0 0 14 2.345 11.14 11.14 0 0 0 2.862 13.483 11.14 11.14 0 0 0 14 24.621z" fill="#fff"/><g clip-path="url(#A)"><path d="M18.516 18.185H9.484c-.285 0-.516-.231-.516-.516v-1.528a1.85 1.85 0 0 1 1.094-1.687l1.978-.834h.614c.238 0 .444.162.501.393.216.879 1.475.88 1.691 0 .057-.231.264-.393.501-.393.66 0 .694-.013.824.045l1.767.789a1.85 1.85 0 0 1 1.094 1.687v1.528c0 .285-.231.516-.516.516zM14.013 6.003c-1.738 0-3.153 1.414-3.153 3.153s1.414 3.153 3.153 3.153 3.153-1.414 3.153-3.153-1.414-3.153-3.153-3.153zM9.039 9.375a1.99 1.99 0 0 0-1.985 1.985 1.99 1.99 0 0 0 1.985 1.985 1.99 1.99 0 0 0 1.985-1.985 1.99 1.99 0 0 0-1.985-1.985zm9.921 0a1.99 1.99 0 0 0-1.985 1.985 1.99 1.99 0 0 0 1.985 1.985 1.99 1.99 0 0 0 1.985-1.985 1.99 1.99 0 0 0-1.985-1.985zm2.294 4.728l-1.195-.484c-.769 0-1.272-.005-1.612-.007s-.45.452-.151.609c.245.128.394.238.571.431.516.561.564 1.154.564 1.646 0 .178.144.322.322.322h1.729c.285 0 .516-.231.516-.516v-.851a1.26 1.26 0 0 0-.745-1.149zM7.94 13.619c-.146 0-.117.003-1.195.484A1.26 1.26 0 0 0 6 15.252v.851c0 .285.231.516.516.516h1.729c.178 0 .323-.144.322-.323-.001-.494.046-1.083.564-1.646.176-.192.326-.303.566-.429.299-.157.189-.609-.149-.609l-1.608.005z" fill="#ff9500"/></g><defs><clipPath id="A"><path fill="#fff" transform="translate(6 6)" d="M0 0h16v12.188H0z"/></clipPath></defs></svg>