<svg xmlns="http://www.w3.org/2000/svg" width="58" height="74" fill="none" xmlns:v="https://vecta.io/nano"><path d="M29.54 0H29C13.044 0 .108 12.967.108 28.963c0 23.674 23.817 40.926 28.201 43.86.205.137.445.211.691.214a1.24 1.24 0 0 0 .691-.214c4.095-2.745 24.998-17.907 27.874-39.037C59.927 16.433 47.013.327 29.54 0h0z" fill="#34c759"/><path d="M29 52.889c13.181 0 23.867-10.712 23.867-23.926S42.181 5.037 29 5.037 5.133 15.749 5.133 28.963 15.818 52.889 29 52.889z" fill="#fff"/><g clip-path="url(#A)" fill="#34c759"><path d="M27.559 32.052v1.285h2.292v-1.285c-.378.072-.76.113-1.146.113s-.769-.04-1.147-.113zm11.888-1.839l-4.706-1.407c-.303.381-.622.729-.949 1.049l1.225.367-3.662 15.37c-.501.122-1.011.219-1.535.271l1.325-3.136-1.274-8.538h-2.308l-1.274 8.538 1.325 3.136c-.534-.052-1.051-.153-1.56-.277-.626-3.188-2.84-12.088-3.659-15.357l1.231-.368a11.35 11.35 0 0 1-.95-1.049l-4.689 1.402c-1.052.314-1.772 1.283-1.772 2.383v2.066c0 6.922 5.597 12.533 12.503 12.533S41.22 41.585 41.22 34.663v-2.066c0-1.1-.72-2.068-1.772-2.383zm-2.662-11.577c.231-1.46.128-3.028-.074-4.252-.432-2.618-1.468-4.46-1.468-4.46l-.484 2.034-.047.2-.025-.26c-.116-1.11-.612-2.613-.612-2.613-1.114.532-2.943.479-2.943.479.506-.373 1.828-.744 1.828-.744-3.293-1.04-5.399.048-6.424.867a5.31 5.31 0 0 0-.515.468l.376-.435.78-.901c-1.572.155-2.718 1.219-3.414 2.089-.503.627-.779 1.156-.779 1.156l.134-.693.29-1.489c-1.081.866-1.732 2.127-2.132 3.411-.602 1.94-.664 4.301-.644 5.138-.626.26-1.098.846-1.304 1.625-.195.744-.144 1.611.144 2.441.455 1.31 1.424 2.274 2.479 2.489 1.31 2.817 3.719 5.7 6.752 5.7s5.44-2.879 6.75-5.694c1.038-.204 2.024-1.173 2.484-2.495.617-1.782.11-3.536-1.153-4.062zm-.049 3.643c-.379 1.09-1.15 1.678-1.698 1.678-.305.037-.494.147-.596.383-1.108 2.549-3.198 5.272-5.738 5.272s-4.629-2.723-5.738-5.272c-.101-.233-.357-.383-.611-.383-.532 0-1.302-.588-1.68-1.678-.203-.585-.245-1.203-.116-1.695.063-.238.223-.655.593-.784a.87.87 0 0 1 .157-.026.64.64 0 0 0 .575-.605c.014-.295.049-.579.119-.858.949-3.756 4.214-4.024 4.214-4.024-.587 1.383-1.536 1.968-1.536 1.968 3.131-1.277 4.106-2.66 4.106-2.66 2.083 2.9 4.954 4.158 6.612 4.673l.124.902a.64.64 0 0 0 .575.605c.038.004.117.012.158.026.563.197.899 1.264.479 2.479z"/></g><defs><clipPath id="A"><path fill="#fff" transform="translate(16.143 8.593)" d="M0 0h25.131v38.667H0z"/></clipPath></defs></svg>