<svg xmlns="http://www.w3.org/2000/svg" width="24" height="24" fill="#000" xmlns:v="https://vecta.io/nano"><path d="M16.793 13.6a4.52 4.52 0 0 0 .287-1.6c0-1.213-.482-2.376-1.34-3.234a4.57 4.57 0 0 0-3.234-1.339 4.53 4.53 0 0 0-1.58.287L12 8.82c.163-.026.328-.039.493-.04a3.25 3.25 0 0 1 2.291.939c.61.603.956 1.423.963 2.281a3.21 3.21 0 0 1-.04.493l1.087 1.107zm6.067-1.913C20.613 7.533 16.673 5.02 12.313 5.02c-1.187.003-2.366.194-3.493.567l1.073 1.08a9.83 9.83 0 0 1 2.42-.313c3.753 0 7.167 2.093 9.2 5.62a11.83 11.83 0 0 1-2.913 3.4l.947.947c1.364-1.1 2.497-2.46 3.333-4l.173-.32-.193-.313zM3.247 3.853L6.22 6.827a13.02 13.02 0 0 0-4.46 4.86L1.587 12l.173.32c2.247 4.153 6.187 6.667 10.547 6.667 1.702 0 3.381-.386 4.913-1.127l3.333 3.333 1.167-1L4.387 2.86l-1.14.993zm6.5 6.5l4.433 4.433c-.501.31-1.077.476-1.667.48-.428 0-.852-.085-1.247-.249a3.24 3.24 0 0 1-1.056-.709 3.25 3.25 0 0 1-.702-1.06 3.24 3.24 0 0 1-.241-1.249 3.21 3.21 0 0 1 .48-1.647zm-.967-.967c-.624.88-.916 1.952-.825 3.026s.559 2.082 1.321 2.845 1.77 1.23 2.845 1.321a4.57 4.57 0 0 0 3.026-.825l1.067 1.067a9.94 9.94 0 0 1-3.907.8c-3.753 0-7.167-2.093-9.2-5.62a11.52 11.52 0 0 1 4.08-4.2L8.78 9.387z" fill-opacity=".5"/></svg>