<svg xmlns="http://www.w3.org/2000/svg" width="24" height="24" fill="none" xmlns:v="https://vecta.io/nano"><path d="M12 3.75C9.075 3.75 6.75 6.075 6.75 9a5.22 5.22 0 0 0 2.303 4.36C6.383 14.51 4.5 17.169 4.5 20.25H6a6.02 6.02 0 0 1 6-6c2.925 0 5.25-2.325 5.25-5.25S14.925 3.75 12 3.75zm0 1.5A3.71 3.71 0 0 1 15.75 9 3.71 3.71 0 0 1 12 12.75 3.71 3.71 0 0 1 8.25 9 3.71 3.71 0 0 1 12 5.25zm6.075 8.25v1.575c-.45.075-.9.3-1.275.525l-1.125-1.125-1.05 1.05 1.125 1.125c-.3.375-.45.825-.525 1.35H13.5v1.5h1.575c.075.45.3.9.525 1.35l-1.125 1.125 1.05 1.05L16.65 21.9c.375.225.825.45 1.275.525V24h1.5v-1.575c.45-.075.9-.3 1.275-.525l1.125 1.125 1.05-1.05-1.125-1.125c.3-.375.45-.825.525-1.35H24V18h-1.575c-.075-.45-.3-.9-.525-1.35l1.125-1.125-1.05-1.05L20.85 15.6c-.375-.225-.825-.45-1.275-.525V13.5h-1.5zm.675 3c1.275 0 2.25.975 2.25 2.25S20.025 21 18.75 21s-2.25-.975-2.25-2.25.975-2.25 2.25-2.25zm0 1.5c-.095.001-.189.023-.275.064s-.17.1-.24.17-.128.151-.17.24-.063.18-.064.275c0 .281.211.563.475.686.086.041.18.063.275.064a.81.81 0 0 0 .75-.75.81.81 0 0 0-.75-.75z" fill="gray"/></svg>