<svg xmlns="http://www.w3.org/2000/svg" width="40" height="40" fill="none" xmlns:v="https://vecta.io/nano"><path fill-rule="evenodd" d="M20 0c15.245 0 20 5.485 20 20s-4.755 20-20 20S0 34.515 0 20 4.755 0 20 0z" fill="#f4621f"/><path d="M30.667 14.893c.002-.262-.069-.52-.206-.744s-.333-.405-.567-.523c-.222-.119-.473-.173-.724-.155s-.492.106-.696.255l-3.14 2.007v-2.4c0-.354-.141-.693-.391-.943S24.354 12 24 12H12c-.707 0-1.386.281-1.886.781s-.781 1.178-.781 1.886v10.667c0 .707.281 1.386.781 1.886S11.293 28 12 28h12c.354 0 .693-.14.943-.39s.391-.589.391-.943v-2.4l3.093 2a1.38 1.38 0 0 0 1.467.133c.238-.12.438-.305.575-.534s.206-.492.199-.759V14.893zm-1.38 10.287c-.04 0-.073 0-.127-.04L24 21.847v4.82H12c-.354 0-.693-.14-.943-.391s-.391-.589-.391-.943V14.667c0-.354.14-.693.391-.943s.589-.391.943-.391h12v4.82l5.2-3.333c.013-.009.028-.014.043-.014s.031.005.043.014.027.016.035.029.012.029.011.044v10.213c.001.016-.003.031-.011.044s-.021.023-.035.029z" fill="#fff"/></svg>