<svg xmlns="http://www.w3.org/2000/svg" width="40" height="40" fill="none" xmlns:v="https://vecta.io/nano"><path fill-rule="evenodd" d="M20 0c15.245 0 20 5.485 20 20s-4.755 20-20 20S0 34.515 0 20 4.755 0 20 0z" fill="#34c759"/><path d="M10.78 21.233v7.785H9.666a.67.67 0 0 0-.642.668.67.67 0 0 0 .642.668h14.681a.67.67 0 0 0 .472-.196c.125-.125.196-.295.196-.472a.67.67 0 0 0-.668-.668h-1.094v-5.821l1.019-1.032c.031-.033.059-.068.084-.106l2.71-4.18a1.55 1.55 0 0 0 .72.185h.005c.415 0 .806-.162 1.1-.456l1.007-1.007a1.56 1.56 0 0 0 0-2.202l-4.943-4.943a1.56 1.56 0 0 0-2.202 0l-.979.979c-.197.198-.336.446-.404.717a1.55 1.55 0 0 0 .019.823l-3.958 1.005a5.74 5.74 0 0 0-3.726 2.992c-.394.795-.601 1.67-.604 2.557 0 .705.144 1.391.396 2.037h-2.05a.67.67 0 0 0-.668.667h.001zm11.938-9.854l.978-.98c.021-.021.045-.037.072-.048s.056-.017.085-.017.058.006.085.017.051.027.072.048l4.943 4.943c.021.021.037.045.049.072s.017.056.017.085-.006.058-.017.085-.028.052-.049.072l-1.007 1.006c-.021.021-.045.037-.072.049a.22.22 0 0 1-.085.017h-.001c-.029 0-.058-.006-.086-.017s-.052-.028-.072-.049l-4.914-4.97c-.021-.021-.037-.045-.048-.072s-.017-.056-.016-.085.006-.058.017-.085.028-.051.049-.072h0zm-8.282 7.15c0-.67.161-1.35.464-1.962a4.4 4.4 0 0 1 1.18-1.459c.494-.396 1.067-.681 1.68-.835l4.5-1.144 3.802 3.844-2.79 4.302-3.853 3.907c-.085.086-.186.154-.298.2s-.231.069-.352.068a.89.89 0 0 1-.769-.438c-.204-.347-.12-.834.201-1.155l3.407-3.415c.11-.11.178-.254.193-.409s-.025-.31-.112-.438l-.144-.21a2.95 2.95 0 0 0-2.567-1.233 2.97 2.97 0 0 0-2.432 1.494l-.53.92h-1.055c-.342-.624-.523-1.325-.525-2.037h0zm5.162 2.037h-2.043l.146-.255a1.62 1.62 0 0 1 1.345-.826 1.61 1.61 0 0 1 1.2.43l-.648.651zm-7.484 1.335h6.153l-1.011 1.014c-.758.758-.923 1.9-.404 2.78.197.334.477.61.814.801s.717.291 1.104.29c.601 0 1.167-.233 1.596-.661l1.553-1.574v4.467h-9.805v-7.117h0z" fill="#fff"/></svg>