<svg xmlns="http://www.w3.org/2000/svg" width="16" height="16" fill="none" xmlns:v="https://vecta.io/nano"><g clip-path="url(#A)"><path d="M10.855 4.903C10.387 2.023 9.284 0 8 0S5.613 2.023 5.145 4.903h5.71zM4.903 8a20.22 20.22 0 0 0 .106 2.065h5.977L11.094 8a20.2 20.2 0 0 0-.107-2.065H5.01A20.22 20.22 0 0 0 4.903 8zm10.474-3.097c-.923-2.19-2.79-3.884-5.097-4.568.787 1.09 1.329 2.732 1.613 4.568h3.484zM5.716.335A8.01 8.01 0 0 0 .623 4.903h3.484c.281-1.835.823-3.477 1.61-4.568zm10.006 5.6h-3.7L12.129 8c0 .694-.039 1.387-.107 2.065h3.697A7.93 7.93 0 0 0 15.997 8a8.07 8.07 0 0 0-.274-2.065zM3.871 8c0-.694.039-1.387.106-2.065h-3.7A8.07 8.07 0 0 0 0 8a8.07 8.07 0 0 0 .277 2.065h3.697L3.871 8zm1.274 3.097C5.613 13.977 6.716 16 8 16s2.387-2.023 2.855-4.903h-5.71zm5.139 4.568c2.303-.684 4.174-2.377 5.097-4.568h-3.484c-.284 1.835-.826 3.477-1.613 4.568zM.623 11.097c.923 2.19 2.79 3.884 5.097 4.568-.787-1.09-1.329-2.732-1.613-4.568H.623z" fill="#000" fill-opacity=".6"/></g><defs><clipPath id="A"><path fill="#fff" d="M0 0h16v16H0z"/></clipPath></defs></svg>