<svg xmlns="http://www.w3.org/2000/svg" width="36" height="36" fill="none" xmlns:v="https://vecta.io/nano"><path d="M9 0a2.26 2.26 0 0 0-2.25 2.25v31.5A2.26 2.26 0 0 0 9 36h22.5a2.26 2.26 0 0 0 2.25-2.25V9l-9-9H9z" fill="#e2e5e7"/><path d="M27 9h6.75l-9-9v6.75A2.26 2.26 0 0 0 27 9z" fill="#b0b7bd"/><path d="M33.75 15.75L27 9h6.75v6.75z" fill="#cad1d8"/><path d="M29.25 29.25a1.13 1.13 0 0 1-1.125 1.125H3.375A1.13 1.13 0 0 1 2.25 29.25V18a1.13 1.13 0 0 1 1.125-1.125h24.75A1.13 1.13 0 0 1 29.25 18v11.25z" fill="#f29c1f"/><path d="M9.231 22.934l1.566-1.961c.467-.611 1.376.171.864.756l-1.647 2.041 1.836 2.285c.494.675-.495 1.323-.981.657l-1.655-2.123-1.628 2.168c-.459.656-1.476-.081-.962-.693l1.808-2.294-1.664-2.041c-.567-.675.486-1.367.899-.737l1.564 1.942zm4.921.117v3.328c0 .397-.324.621-.647.621-.288 0-.54-.224-.54-.621v-5.064a.6.6 0 0 1 .54-.622c.26 0 .413.154.566.325l1.98 2.671 2.05-2.771c.298-.368 1.026-.225 1.026.397v5.064c0 .397-.252.621-.539.621-.324 0-.576-.224-.576-.621v-3.328l-1.494 1.889c-.323.397-.728.397-1.025 0l-1.341-1.889zm6.54-1.736c0-.297.252-.549.567-.549a.55.55 0 0 1 .531.549v4.507h2.447c.881 0 .9 1.178 0 1.178H21.26c-.315 0-.567-.224-.567-.549v-5.136h-.001z" fill="#fff"/><path d="M28.125 30.375H6.75V31.5h21.375a1.13 1.13 0 0 0 1.125-1.125V29.25a1.13 1.13 0 0 1-1.125 1.125z" fill="#cad1d8"/></svg>